<svg width="48" height="48" viewBox="0 0 48 48" xmlns="http://www.w3.org/2000/svg"><g fill="none" fill-rule="evenodd"><path fill-opacity=".01" fill="#FFF" d="M0 0h48v48H0z"/><path d="M31.342 35.51l-1.738-11.889-4.526-12.604c5.347 0 12.062 2.733 12.062 13.004.047 8.783-5.265 11.376-5.798 11.49zm-7.318 1.615c-2.39-.023-5.858-.812-6.726-1.354l5.84-12.888h1.736l5.79 12.973c-.867.543-4.249 1.294-6.64 1.27zM10.873 24.021c0-10.271 6.703-13.004 12.049-13.004L18.55 23.621l-1.904 11.817c-.565-.122-5.82-2.626-5.773-11.417zm12.463-12.992c.375 0 .971-.018 1.346-.018l.006 10.081H23.336V11.03zM24 9.97c-5.135.071-14.77 1.048-14.77 14.052 0 13.005 9.87 13.868 14.77 14.01 4.9-.142 14.77-1.005 14.77-14.01 0-13.004-9.635-13.98-14.77-14.052z" fill="#000"/></g></svg>