<svg width="48" height="48" viewBox="0 0 48 48" xmlns="http://www.w3.org/2000/svg"><g fill="none" fill-rule="evenodd"><path fill-opacity=".01" fill="#FFF" d="M0 0h48v48H0z"/><path d="M16.707 11.164c3.308-1.984 8.03-2.527 11.823-1.226 2.633.872 5.068 2.453 6.968 4.815 2.938 3.589 4.049 8.626 2.707 13.285-.979 3.68-3.948 7.375-7.503 9.112-3.085 1.663-7.397 2.124-10.885 1.012-3.34-.963-6.598-3.407-8.474-6.584-2.065-3.293-2.732-7.952-1.481-11.837.979-3.408 3.587-6.766 6.845-8.577zm7.498-1.065v27.812a14.618 14.618 0 0 0 6.16-1.588c3.04-1.488 5.761-4.611 6.778-7.743 1.352-3.667.816-8.369-1.125-11.591-2.586-4.266-6.959-6.799-11.813-6.89zm-.526 15.867h-4.255v11.138c1.316.499 2.73.78 4.255.799V25.966zm10.524-9.849c1.579 1.017 2.532 2.642 2.314 4.539-.09 1.434-1.044 2.904-2.432 3.413a4.68 4.68 0 0 1-1.905.3l-3.766.008a.338.338 0 0 0-.235.164c-.054.1-.028.245.036.345.082.109.209.118.345.118l4.491.009c.807.055 1.587.653 1.887 1.416.4 1.017.2 2.296-.563 3.077-.761.871-1.987.635-3.093.68l-2.768.01a.377.377 0 0 0-.227.181c-.045.118-.036.264.055.355a.403.403 0 0 0 .3.117h3.048c.535.046 1.125.364 1.288.917.155.518.11 1.171-.344 1.525-.78.581-1.915.309-2.904.39a.32.32 0 0 0-.19.173c-.037.063-.01.145.018.209.054.054.118.118.2.136.626.063 1.342-.1 1.868.2.173.136.218.345.173.553-.036.164-.163.363-.345.381a.26.26 0 0 1-.2-.054c-.118-.109-.054-.317-.226-.372-.908-.136-2.25.326-2.532-.8-.063-.39.028-.753.3-1.025.29-.254.671-.326 1.08-.308l1.587-.01c.118-.036.2-.163.209-.28 0-.155-.027-.31-.163-.382l-.2-.018-3.584-.01c-.535-.044-1.025-.508-1.207-.998-.272-.744-.145-1.67.39-2.25.363-.373.808-.546 1.334-.546l3.947-.008c.118-.037.245-.1.3-.227a.324.324 0 0 0-.064-.345.381.381 0 0 0-.308-.155l-4.573-.009c-.826-.045-1.624-.744-1.906-1.506-.399-1.054-.272-2.442.39-3.332.509-.635 1.225-.908 2.006-.962l4.055-.036a.633.633 0 0 0 .318-.2c.1-.163.145-.408.054-.59a.532.532 0 0 0-.38-.254l-4.129.064c.082-.427.2-.899.635-1.126.227-.1.49-.118.762-.1l1.978-.027a.325.325 0 0 0 .209-.282.348.348 0 0 0-.1-.217l-.127-.064-2.577-.018c-.245-.028-.48-.227-.58-.454a2.044 2.044 0 0 1-.182-.735l1.806-.028c.272-.117.254-.444.48-.617.272-.226.636-.236.999-.245l1.796-.009c.462-.036.87-.272 1.152-.68zm-18.99 9.85h-4.99c.137.807.336 1.588.581 2.35.753 2.46 2.277 4.639 4.41 6.472v-8.823zm10.447-9.601l.079.015c.308.1.561.308.834.499.281.254.707.499.77.899.028.526.21.998.573 1.388-.357.35-.47.797-.579 1.241a1.583 1.583 0 0 1-.444.766c-.373.358-.809.631-1.255.816a.263.263 0 0 1-.217-.045.523.523 0 0 1-.11-.5c.237-.426.754-.48 1.062-.825.127-.2.037-.463.064-.709a.382.382 0 0 0-.146-.208c-.426.072-.752.4-1.224.318a.64.64 0 0 1-.5-.3c-.199-.3-.18-.753-.026-1.062.172-.327.526-.39.861-.336.345 0 .572.354.917.272.19-.181.108-.508.108-.762-.154-.372-.58-.417-.86-.644-.155-.119-.3-.282-.273-.49a.44.44 0 0 1 .081-.237c.091-.1.236-.118.364-.081zm-1.981-6.258c-1.506.073-2.94.29-4.255.78V21.7h4.255zm-8.474 3.087c-2.659 2.369-4.41 5.21-4.936 8.505h4.945zm17.365 2.181v.694h-4.808v-.694h4.808zm-3.36-1.338c.242-.137.62-.105.769.17.147.252.115.642-.074.864-.148.158-.4.168-.6.116-.222-.074-.328-.306-.338-.528-.021-.253.031-.485.242-.622zm-1.166-.042c.243-.084.538-.032.675.19.147.253.137.633-.043.865-.147.168-.41.19-.621.137-.243-.095-.348-.37-.348-.623 0-.232.105-.474.337-.569zm2.433.032c.253-.127.633-.085.77.2.126.253.105.633-.095.844-.148.147-.39.168-.59.116-.19-.064-.316-.264-.338-.454-.032-.263 0-.559.253-.706zm1.24.01c.253-.147.622-.095.78.18.116.231.116.58-.042.79-.137.19-.38.243-.612.18-.21-.042-.336-.264-.368-.464-.032-.264.02-.538.242-.686z" fill="#000"/></g></svg>