<svg width="48" height="48" viewBox="0 0 48 48" xmlns="http://www.w3.org/2000/svg"><g fill="none" fill-rule="evenodd"><path fill-opacity=".01" fill="#FFF" d="M0 0h48v48H0z"/><path d="M20.335 19.2c.558 0 .995.158 1.299.47.312.319.397.714.42.927h3.891c.023-.213.11-.608.421-.928.304-.311.74-.469 1.299-.469h17.72c.038.001.378.019.538.252a.45.45 0 0 1 .077.26c0 .065-.012.14-.041.225a.148.148 0 0 1-.015.03l-.478.75c-.027.04-.143.17-.516.174a.363.363 0 0 0-.206.158l-.374.667-.043.077a.105.105 0 0 1-.005.008c-.01.016-.267.406-.682.41-.244 0-.354.25-.358.261l-.007.013-.331.61a.308.308 0 0 1-.04.069.257.257 0 0 1-.036.041c-.114.122-.375.296-.97.48l-1.81.534-5.096 1.502c-.143.052-.388.182-.446.315l-.153.353c-.022.049-.225.448-1.112.768l-.028.01a4.806 4.806 0 0 1-.253.082l-1.863.513-.189.052-4.068 1.12c-.08.028-.818.27-1.392-.304l-1.4-1.4-.017-.021c.003.005-.003 0-.014-.006l-.022-.006a4.19 4.19 0 0 1-.035-.003l-.035.003a.077.077 0 0 0-.04.018l.003-.006-.016.021-1.4 1.4c-.574.574-1.312.332-1.392.303l-4.257-1.171-1.866-.514c-1.124-.33-1.366-.806-1.39-.86l-.153-.351c-.058-.134-.303-.264-.446-.316L7.914 24.22 6.1 23.685c-.594-.184-.855-.359-.969-.48a.274.274 0 0 1-.034-.04.314.314 0 0 1-.041-.07l-.331-.61a.142.142 0 0 1-.007-.013c-.004-.01-.114-.26-.352-.26-.421-.005-.677-.395-.688-.411l-.005-.008-.418-.744a.362.362 0 0 0-.206-.158c-.372-.004-.488-.134-.516-.177l-.477-.747a.143.143 0 0 1-.015-.03.677.677 0 0 1-.041-.225c0-.116.037-.201.077-.26.16-.233.5-.25.538-.252zm2.053 7.945l-.191.707a.122.122 0 0 1-.003.01c-.09.264-.206.601-.397.83a.968.968 0 0 0 .507-.27l1.21-1.211c-.278 0-.662-.014-1.126-.066zm3.224 0a10.24 10.24 0 0 1-1.126.066l1.21 1.21c.162.161.341.239.507.272-.192-.23-.307-.567-.397-.831a.139.139 0 0 1-.003-.01zm1.761-.333c-.536.143-1.03.236-1.465.296l.179.663c.217.636.388.946.715.878.066-.018.723-.2 1.585-.436-.178-.143-.37-.368-.582-.68a8.277 8.277 0 0 1-.432-.72zm-6.746 0c-.076.143-.235.43-.432.721-.212.312-.404.537-.582.68l1.585.436c.327.068.498-.242.715-.878l.179-.663c-.436-.06-.93-.153-1.465-.296zm-1.682-.578c-.475.5-.828.87-.83.871-.049.058-.305.344-.619.525l1.706.47c.297-.025.811-.768 1.134-1.369a12.414 12.414 0 0 1-1.39-.497zm10.11 0a12.424 12.424 0 0 1-1.391.497c.323.602.837 1.344 1.134 1.368l1.706-.469a2.714 2.714 0 0 1-.62-.525l-.83-.87zm-11.498-.696l-2.008 1.437a1.971 1.971 0 0 1-.15.077l1.543.425c.305.084.803-.394.953-.568l.005-.005.758-.796a12.505 12.505 0 0 1-1.101-.57zm12.886 0a12.46 12.46 0 0 1-1.101.57l.758.796c.155.18.653.657.958.573l1.543-.424a1.967 1.967 0 0 1-.15-.078zm-5.777-1.9h-.519v3.27c.224.01.716.018 1.387-.054l-.868-3.217zm-.813 0h-.519l-.868 3.216c.671.072 1.163.063 1.387.053v-3.27zm-7.723.933l-2.248 1.052-.015.007c-.011.003-.136.044-.307.074a.639.639 0 0 1 .165.215l.15.347c.006.01.184.34.953.617.112.044.396-.064.557-.153l1.896-1.357a12.685 12.685 0 0 1-1.151-.802zm15.74 0a12.802 12.802 0 0 1-1.15.802l1.895 1.357c.16.088.442.196.554.154.772-.277.95-.608.955-.618l.152-.347a.637.637 0 0 1 .164-.215c-.171-.03-.296-.07-.307-.074l-.016-.007zm-8.841-.934h-.553l-1.699 2.91c.508.13.978.216 1.393.271l.859-3.18zm2.495 0h-.552l.858 3.181c.415-.055.885-.14 1.393-.272l-1.7-2.909zm-3.39 0h-.715l-2.256 2.369a12.11 12.11 0 0 0 1.319.46l1.653-2.829zm4.447 0h-.716l1.653 2.83a12.227 12.227 0 0 0 1.319-.461l-2.256-2.369zm1.208 0h-.8l2.137 2.244c.36-.16.71-.337 1.054-.532l-2.39-1.712zm-6.778 0h-.8l-2.39 1.712c.342.195.694.372 1.053.532l2.137-2.244zm11.929 0c-.263.256-.534.499-.813.728l2.107.987c.058.018.477.144.765.06l1.817-.536zm-17.88 0l-3.877 1.239 1.818.535c.288.085.707-.04.765-.059l2.107-.987c-.279-.23-.55-.472-.813-.727zm14.816 0h-1.58l1.71 1.225.452.324a12.281 12.281 0 0 0 1.112-.756l-1.694-.793zm-10.172 0h-1.58l-1.694.793.147.11c.312.232.634.447.965.646l2.162-1.549zm13.937-.732c-.152.171-.308.337-.466.498l3.754 1.199c.138.029.515.089.693.036l1.815-.535zm-19.282 0l-5.796 1.198 1.815.535c.178.053.555-.007.693-.036l3.754-1.199a14.106 14.106 0 0 1-.466-.498zm18.152.732h-1.939l1.258.59c.233-.188.46-.384.681-.59zm-15.083 0h-1.94c.222.206.45.402.682.59l1.258-.59zm-3.596-1.359L5.965 23.33c.067.024.14.049.22.074l1.777.523 6.175-1.276a14.374 14.374 0 0 1-.305-.372zm20.336 0c-.1.127-.202.25-.305.372l6.175 1.276 1.774-.523c.082-.025.155-.05.222-.074zm-20.837-.667l-8.451.567a.843.843 0 0 1 .107.172 7777.587 7777.587 0 0 0 .342.635c-.003-.009.003 0 .019.018.064.042.312.061.531.04l7.743-1.034c-.099-.13-.196-.263-.291-.398zm21.339 0c-.096.135-.193.267-.292.398l7.743 1.034c.22.021.467.002.531-.04.016-.017.022-.027.022-.027l.003-.006.336-.62.013-.027a.867.867 0 0 1 .094-.145zm-16.949-.287c-.277 0-.514.146-.514.445 0 .523.725.333.725.763 0 .183-.134.338-.322.338-.18 0-.285-.092-.375-.24h-.023c-.01.07-.021.138-.044.206.079.085.264.134.377.134.315 0 .572-.197.572-.528 0-.493-.73-.322-.73-.748 0-.164.133-.27.293-.27.136 0 .238.076.287.2h.023c.018-.064.035-.129.062-.19a.52.52 0 0 0-.33-.11zm2.656 0c-.48 0-.857.32-.857.826 0 .496.34.82.852.82.517 0 .882-.338.882-.854 0-.556-.442-.792-.877-.792zm-.915.035h-1.194c.002.025.006.046.006.07 0 .022-.004.046-.006.069.132-.014.273-.028.506-.028v1.477c.033-.002.068-.007.102-.007.033 0 .066.005.102.007V21.47c.206 0 .369.014.484.028-.002-.023-.007-.047-.007-.07 0-.023.005-.044.007-.07zm10.507 0h-1.194c.002.025.007.046.007.07 0 .022-.005.046-.007.069.132-.014.273-.028.507-.028v1.477c.032-.002.067-.007.102-.007.032 0 .064.005.102.007V21.47c.206 0 .367.014.483.028-.002-.023-.007-.047-.007-.07 0-.023.005-.044.007-.07zm-1.87 0h-.491v1.583c.032-.002.067-.007.101-.007.033 0 .065.005.103.007v-.773h.087l.186.217.272.355c.049.064.095.13.147.201.041-.002.087-.007.131-.007.044 0 .086.005.135.007l-.045-.058-.11-.13-.477-.604c.233-.041.474-.171.474-.44 0-.233-.157-.351-.514-.351zm-6.425 0h-.09v1.583c.02-.002.041-.007.064-.007.02 0 .042.005.065.007v-1.248h.023l1 1.107c.049.053.095.109.12.141h.07v-1.583c-.023.002-.044.007-.065.007-.023 0-.044-.005-.065-.007v1.192h-.023l-1.1-1.192zm8.765 0c-.037.002-.07.007-.102.007-.034 0-.069-.005-.101-.007v1.583c.032-.002.067-.007.101-.007.033 0 .065.005.102.007zm.542 0h-.09v1.583c.02-.002.042-.007.065-.007.02 0 .041.005.065.007v-1.248h.022l1 1.107c.05.053.096.109.121.141h.07v-1.583c-.024.002-.044.007-.065.007-.023 0-.044-.005-.065-.007v1.192h-.023l-1.1-1.192zm-6.8 0h-.06c-.024.243-.162 1.21-.223 1.583.028-.002.054-.007.084-.007.025 0 .051.005.08.007 0-.284.064-.743.114-1.195.158.302.32.602.468.908l.128.262h.025c.139-.32.338-.69.606-1.17.033.23.079.73.118 1.195.035-.002.072-.007.11-.007.034 0 .066.005.108.007a48.75 48.75 0 0 1-.188-1.583h-.048c-.234.414-.447.817-.667 1.213-.248-.41-.47-.846-.655-1.213zm-7.85-.035h-.052l-.723 1.618c.026-.002.051-.007.081-.007.028 0 .054.005.086.007.065-.217.149-.421.23-.625h.587c.093.21.176.433.243.625.04-.002.08-.007.123-.007.04 0 .077.005.12.007l-.694-1.618zm10.336 0h-.053l-.722 1.618c.025-.002.05-.007.08-.007.029 0 .054.005.087.007.065-.217.148-.421.229-.625h.588c.092.21.176.433.243.625.04-.002.079-.007.123-.007.039 0 .076.005.12.007l-.695-1.618zM20.4 21.4c.186 0 .366.079.482.225.12.155.146.317.146.51.016.254-.16.759-.649.759-.344 0-.632-.246-.632-.716s.246-.778.653-.778zm12.709.737v.357l.423.088c.1-.114.197-.231.294-.35l-.717-.095zm-18.218 0l-.717.096c.096.118.194.235.294.349l.423-.088v-.357zm11.693-.51l.257.593h-.509l.252-.593zm-10.335 0l.257.593h-.51l.253-.593zm11.798-.188l.105.007c.173.029.254.132.254.292 0 .18-.127.297-.296.331a1.283 1.283 0 0 1-.298.012v-.637a2.11 2.11 0 0 1 .34.002zm-13.156.068l-1.214.081c.093.127.187.253.283.375l.93-.124v-.332zm18.218 0v.332l.586.078.345.046c.096-.122.19-.248.283-.375l-1.214-.081zm11.386-.615h-9.343c-.094.148-.19.293-.286.437l8.77.587c.242-.001.417-.245.436-.272l.417-.743.006-.01zm-31.647 0H3.505l.004.005.419.747c.018.027.194.27.436.272l8.77-.587a15.892 15.892 0 0 1-.286-.437zm2.043 0h-1.692c.09.14.183.278.277.414l1.415-.095v-.32zm19.91 0H33.11v.32l1.414.094c.095-.136.187-.274.278-.414zm-23.446-1.397H2.624c-.06.003-.24.03-.304.125a.162.162 0 0 0-.025.093c0 .033.008.071.021.113l.457.716c.017.012.093.055.296.055h9.626c-.194-.367-.666-1.102-1.34-1.102zm24.463 0h-8.153c-.474 0-.84.127-1.086.378a1.29 1.29 0 0 0-.336.724h8.732c.1-.217.386-.76.843-1.102zm-15.483 0h-8.153c.456.342.742.885.843 1.102h8.732a1.289 1.289 0 0 0-.336-.724c-.247-.25-.612-.378-1.086-.378zm25.041 0h-8.731c-.674 0-1.146.735-1.34 1.102h9.625c.204 0 .28-.043.296-.055l.458-.716a.382.382 0 0 0 .021-.113.163.163 0 0 0-.025-.093c-.064-.094-.244-.122-.304-.125z" fill="#000"/></g></svg>