<svg width="48" height="48" viewBox="0 0 48 48" xmlns="http://www.w3.org/2000/svg"><g fill="none" fill-rule="evenodd"><path fill-opacity=".01" fill="#FFF" d="M0 0h48v48H0z"/><path d="M38.408 29.978a6.007 6.007 0 0 1-3.535-1.161A7.769 7.769 0 0 0 36.548 24a7.715 7.715 0 0 0-1.675-4.817 6.01 6.01 0 0 1 3.535-1.16c3.3 0 5.972 2.673 5.972 5.977a5.971 5.971 0 0 1-5.972 5.978m-4.803-2.426A5.947 5.947 0 0 1 32.437 24c0-1.333.432-2.557 1.168-3.552A5.936 5.936 0 0 1 34.774 24a5.947 5.947 0 0 1-1.169 3.552m-1.267 1.265a5.942 5.942 0 0 1-3.54 1.159c-1.324 0-2.54-.43-3.53-1.16A7.767 7.767 0 0 0 26.942 24a7.713 7.713 0 0 0-1.676-4.817 5.922 5.922 0 0 1 3.532-1.159c1.324 0 2.548.43 3.539 1.16A7.715 7.715 0 0 0 30.662 24c0 1.815.633 3.496 1.676 4.817M24 27.552A5.947 5.947 0 0 1 22.831 24c0-1.333.433-2.557 1.169-3.552A5.936 5.936 0 0 1 25.169 24 5.947 5.947 0 0 1 24 27.552m-1.267 1.265a5.942 5.942 0 0 1-3.54 1.159c-1.324 0-2.54-.43-3.531-1.16A7.768 7.768 0 0 0 17.338 24a7.715 7.715 0 0 0-1.676-4.817 5.922 5.922 0 0 1 3.531-1.159c1.325 0 2.549.43 3.54 1.16A7.715 7.715 0 0 0 21.057 24c0 1.815.632 3.496 1.676 4.817m-8.339-1.265A5.947 5.947 0 0 1 13.226 24c0-1.333.432-2.557 1.168-3.552A5.936 5.936 0 0 1 15.564 24a5.947 5.947 0 0 1-1.17 3.552m-1.267 1.265a6.007 6.007 0 0 1-3.535 1.16A5.97 5.97 0 0 1 3.62 24a5.971 5.971 0 0 1 5.972-5.978c1.315 0 2.547.44 3.535 1.161A7.715 7.715 0 0 0 11.452 24c0 1.815.632 3.496 1.675 4.817m25.281-12.57a7.705 7.705 0 0 0-4.803 1.67 7.703 7.703 0 0 0-4.802-1.67A7.707 7.707 0 0 0 24 17.916a7.704 7.704 0 0 0-4.803-1.67 7.708 7.708 0 0 0-4.803 1.67 7.705 7.705 0 0 0-4.802-1.67c-4.279 0-7.746 3.47-7.746 7.753 0 4.283 3.467 7.754 7.746 7.754a7.703 7.703 0 0 0 4.802-1.67 7.708 7.708 0 0 0 4.803 1.67A7.704 7.704 0 0 0 24 30.084a7.707 7.707 0 0 0 4.803 1.67 7.703 7.703 0 0 0 4.802-1.67 7.703 7.703 0 0 0 4.803 1.67c4.279 0 7.746-3.471 7.746-7.754 0-4.283-3.467-7.754-7.746-7.754" fill="#000"/></g></svg>