<svg width="48" height="48" viewBox="0 0 48 48" xmlns="http://www.w3.org/2000/svg"><g fill="none" fill-rule="evenodd"><path fill-opacity=".01" fill="#FFF" d="M0 0h48v48H0z"/><path d="M23.916 16.8c1.51 0 2.782.219 4.181.892.863-.307 2.263-.345 2.872-.345.98 0 1.497.202 2.83.202 1.332 0 4.163-.202 5.07-.202.906 0 3.108.183 4.33.183 1.22 0 3.108-.27 3.318-.227.092.02.683.72.683.72l-.077.14c-.237.188-1.213.56-1.213.56s.271.562.277.867c0 0-.303.281-1.175.462.1.632-.13.894-.13.894-.217.228-.817.304-1.187.328 0 .83-.232.935-.232.935-.117.137-1.062.2-1.382.22-.183.922-.658 1.084-.658 1.084-.424.048-.947.01-1.53-.076-.08.793-.303.849-.303.849-.244.12-1.656.08-1.656.08-.064.005-.125-.006-.21-.018-.168.792-.381.827-.381.827s-.415.111-1.366-.093c-.186-.04-.29-.01-.414-.067-.19.618-.395.629-.395.629-.223.067-1.445-.31-1.445-.31a.896.896 0 0 1-.495.566c-.308-.013-.682-.14-.88-.226-.633 2.132-2.582 3.814-4.687 4.621l-.309.632-.749-.285-.391.587-.683-.367-.462.556-.614-.444-.537.51-.54-.496-.612.438-.465-.556-.681.366-.39-.592-.746.28-.318-.632c-2.271-.872-4.2-2.54-4.778-4.899 0 0-1.126.395-1.435.27-.202-.08-.406-.546-.406-.546s-1.393.363-1.692.271c-.319-.098-.518-.725-.518-.725s-1.604.053-1.883-.07c-.26-.114-.382-.75-.382-.75-.276.073-1.75-.146-1.934-.22-.184-.072-.607-.836-.607-.836s-1.376-.14-1.53-.274c-.09-.079-.22-.929-.22-.929s-1.309-.327-1.382-.42c-.058-.072-.07-.552-.072-.741l-.001-.076-1.308-.584.183-.874-1.343-.673-.056-.183s.57-.637.626-.71c0 0 .092-.074.216-.044.257.063 2.382.244 4.262.117a63.078 63.078 0 0 1 3.663-.11c.792 0 4.144.2 4.955.182.707-.015 3.945-.291 5.296.174a10.572 10.572 0 0 1 4.098-.842zm.076 11.641c-.041.002-.083.002-.125.002h-.07l-.071-.002a.3.3 0 0 0-.101.194 58.6 58.6 0 0 0-.09 1.455c-.004.133-.03.269.006.387.027.09.233.285.35.283.138-.002.287-.142.32-.252.036-.125.024-.318.012-.442-.038-.376-.085-1.333-.124-1.444-.02-.053-.045-.132-.107-.18zm.788-.049c-.085.01-.17.017-.255.024a.296.296 0 0 0-.084.212c0 .102.058 1.059.088 1.456.012.132.004.27.055.382.038.085.266.256.38.24.138-.02.27-.177.287-.29.02-.128-.014-.318-.04-.44-.086-.369-.25-1.312-.302-1.417-.025-.051-.061-.127-.13-.167zm-1.81.002a.323.323 0 0 0-.103.156 59.577 59.577 0 0 0-.32 1.423c-.024.13-.071.26-.054.383.013.093.184.319.3.334.136.02.306-.096.356-.2.055-.117.074-.31.083-.433.021-.379.126-1.33.104-1.446-.01-.053-.021-.134-.072-.19a10.25 10.25 0 0 1-.295-.027zm2.596-.132a7.397 7.397 0 0 1-.355.069.333.333 0 0 0-.02.184c.018.104.25 1.06.352 1.455.037.132.053.273.125.378.054.08.314.21.428.174.135-.042.24-.225.237-.342-.002-.133-.071-.32-.121-.438-.152-.359-.488-1.283-.56-1.38-.022-.028-.05-.068-.086-.1zm-3.296.021a.338.338 0 0 0-.131.139 56.63 56.63 0 0 0-.565 1.346c-.048.125-.117.245-.121.368-.004.094.127.345.237.38.131.043.318-.042.385-.134.075-.108.127-.294.158-.415.088-.368.358-1.287.358-1.405-.001-.063.002-.161-.06-.23a4.825 4.825 0 0 1-.261-.049zm4.014-.214a6.344 6.344 0 0 1-.319.095.316.316 0 0 0-.006.21c.031.101.38 1.022.53 1.403.052.126.085.264.169.36.064.072.339.17.446.121.129-.06.21-.252.194-.368-.02-.132-.112-.308-.174-.42-.195-.337-.643-1.214-.726-1.302-.03-.03-.067-.07-.114-.1zm-4.762.023a.33.33 0 0 0-.116.102c-.06.084-.566.9-.77 1.243-.068.115-.155.223-.179.344-.018.092.07.36.173.413.123.062.322.008.403-.075.09-.093.172-.269.221-.383.146-.351.558-1.218.576-1.334.008-.06.026-.15-.017-.226a7.097 7.097 0 0 1-.29-.084zm10.117-2.144c-.066.034-.434.707-.75 1.162a6.69 6.69 0 0 1-1.288 1.381 7.378 7.378 0 0 1-1.27.803c-.287.138-.647.299-.715.355-.09.074-.044.132.061.132.093-.039.514-.213.939-.444.893-.487 1.8-1.291 2.423-2.13.268-.362.63-1.038.67-1.132.03-.074.013-.12-.07-.127zm-15.565-.071l-.038.011c-.057.02-.037.12-.021.172.028.09.394.68.556.918.139.204.272.413.437.604.625.725 1.38 1.369 2.192 1.781.124.062.799.41.952.395a.04.04 0 0 0 .037-.051c-.01-.039-.044-.062-.075-.081l-.462-.215a6.747 6.747 0 0 1-.773-.431 8.138 8.138 0 0 1-1.614-1.353c-.225-.246-.377-.5-.581-.793-.193-.276-.45-.782-.515-.886-.034-.055-.081-.09-.133-.06zm1.157-.28c-.1-.004-.727.066-.732.255-.007.27.56.922.76 1.176.635.808 1.455 1.43 2.322 1.893.165.09.621.378.74.337.136-.033.801-1.067.87-1.145a.136.136 0 0 0 .022-.113l-.008-.015c-1.307-.477-2.352-1.293-2.93-2.295-.086-.01-.177.064-.241.101-.1.057-.249.125-.377.095-.2-.047-.255-.272-.426-.289zm13.36.152l-.038.002c-.133.06-.202.269-.37.314-.163.045-.328-.02-.459-.083-.075-.037-.248-.184-.347-.157-.585.93-1.577 1.686-2.803 2.144-.024.04-.03.099-.005.133.032.043.704 1.034.771 1.102.032.035.08.048.131.048l.167-.065c.196-.08.393-.173.579-.275.862-.475 1.634-1.034 2.257-1.86.355-.472.672-.911.677-1.015-.009-.125-.526-.315-.598-.286zM23.9 20.568h-.447c-.043.024-.116.008-.168.014-.223.029-.446.056-.662.096a4.6 4.6 0 0 0-1.737.704c-.13.088-.278.188-.382.314-.002.006-.005.01-.01.016-.037.06-.102.108-.127.175-.01.027-.019.068-.008.099.035.098.22.268.313.322.046.028.124.08.131.137.01.088-.01.171-.016.249l-.001.312v2.145l-.006.267c-.012.044-.19.213-.232.26-.056.064-.084.143-.13.21 0 .006-.004.01-.006.015.027.024.022.072.04.102a.986.986 0 0 0 .23.247c.698.54 1.747.837 2.68.91.123.01.247.014.372.014l.75-.012c.031-.032.263-.031.327-.031.03-.03.193-.032.245-.032.03-.033.133-.033.18-.033.02-.019.054-.02.084-.02.03-.03.103-.031.15-.031.02-.024.08-.031.114-.031.022-.023.077-.033.11-.033.022-.023.082-.032.116-.032.033-.036.13-.062.18-.062.025-.035.071-.04.107-.056l.268-.13c.312-.182.592-.428.757-.749.032-.062.079-.122.079-.2.026-.025.032-.074.032-.114.037-.037.031-.122.031-.178.042-.047.022-.188.02-.254-.008-.63-.505-1.239-1.059-1.473-.01-.004-.036-.005-.036-.018.04-.028.097-.083.15-.083.041-.06.175-.113.237-.166.13-.108.444-.414.444-.578a.115.115 0 0 0 .032-.084c.027-.024.033-.071.033-.108.046-.048.032-.17.032-.241.041-.044.013-.149.005-.199a1.48 1.48 0 0 0-.389-.773c-.047-.05-.1-.087-.147-.134-.148-.152-.341-.249-.522-.339-.509-.25-1.1-.385-1.716-.413l-.895-.002zm-.215 3.457c.428 0 .805.006 1.145.16.724.332.79 1.523.29 2.069-.363.399-1.145.469-1.681.33-.123-.034-.246-.06-.356-.12a1.127 1.127 0 0 1-.357-.324c-.14-.19-.22-.464-.233-.714-.006-.141.013-.281.013-.415.027-.026.032-.087.032-.127.023-.023.032-.068.032-.102a.102.102 0 0 0 .033-.077.166.166 0 0 0 .05-.103c.058-.042.095-.127.136-.183.047-.065.231-.216.309-.216a.22.22 0 0 1 .143-.064c.02-.023.07-.031.102-.031.025-.028.089-.032.129-.032.047-.05.161-.007.213-.051zm6.285.523a.16.16 0 0 0-.088.045 3.655 3.655 0 0 1-.362.988c0 .013.006.025.016.036.051.059.493.283.678.185.184-.09-.105-1.272-.244-1.254zm-12.163-.205c-.138-.018-.426 1.026-.304 1.175.217.181.618.03.658-.042a3.656 3.656 0 0 1-.354-1.133zm12.18-.777c-.018.003-.031.02-.04.046a3.731 3.731 0 0 1 .003.473l.01.038c.03.085.193.323.24.4l.284.521c.059.097.108.193.2.274.185.16.606.26.877.26l.045-.006c.074-.058.088-.12.038-.203l-.267-.34-.583-.775-.25-.35c-.05-.073-.083-.161-.152-.22-.082-.072-.285-.118-.404-.118zm.827-.375c-.123.037-.242.181-.187.325.03.077.113.093.172.142a.84.84 0 0 1 .136.158c.25.343.499.691.768 1.023.103.126.21.287.35.385.183.127.548.253.796.253.09-.044.31-.053.314-.186v-.018c-.015-.127-.253-.293-.347-.38l-1.118-1.061-.234-.234c-.072-.08-.132-.17-.22-.24a.727.727 0 0 0-.43-.167zm-13.111.274c-.19-.029-.393.148-.548.361-.117.174-1.284 1.307-1.285 1.478 0 .134.206.209.497.136.203-.05.484-.04.668-.124.127-.058.341-.594.537-.97.13-.247.15-.203.203-.392l.005-.013-.002-.059c0-.126.007-.252.02-.375a.127.127 0 0 0-.095-.042zm-1.36-.28c-.092-.012-.616.631-1.867 1.497-.107.073-.351.227-.405.337-.078.214.279.267.41.267.03-.003.708-.088 1.023-.27.145-.083 1.55-1.48 1.594-1.541a.492.492 0 0 0 .028-.182c-.074-.11-.308-.034-.44-.051-.1-.014-.244-.043-.343-.058zm15.45-.459a.219.219 0 0 0-.087.066c-.042.057-.056.135-.082.2-.026.059-.053.116-.08.174a.158.158 0 0 0 .006.1c.034.067.123.068.183.1.051.025.098.06.142.1.397.37.77.759 1.171 1.108.15.131.28.293.45.383.135.073.3.108.454.147.237.06.468.143.735.143.097-.048.386-.136.337-.291l-.008-.018-.02-.029c-.097-.107-.243-.161-.361-.234-.221-.135-.436-.278-.653-.419-.527-.343-1.026-.737-1.534-1.113-.188-.14-.316-.356-.55-.41l-.04-.005c-.01-.002-.02-.002-.03-.002h-.017zm-15.669.136c-.059-.114-.567-.173-.703-.13-.143.04-3.438 1.824-3.485 1.901-.08.127.164.322.285.349.18.04 1.179-.056 1.611-.311.127-.094 1.618-1.253 1.735-1.35.143-.12.609-.359.557-.459zm16.519-.505c-.072.047-.263.19-.238.288.028.108.384.27.442.313.544.403 1.085.803 1.652 1.168.312.2.63.409.976.537.34.126.742.17 1.142.17l.071-.006.101-.04c.094-.058.316-.245.248-.364a.162.162 0 0 0-.075-.063l-.247-.083-.427-.155a22.076 22.076 0 0 1-1.3-.568 35.164 35.164 0 0 1-1.731-.882l-.53-.301-.045-.013zm-18.006-.262h-.073c-.2.009-.92.42-1.206.538-.803.338-1.64.624-2.479.9l-.667.2c-.14.04-.306.061-.43.13-.036.018-.068.051-.073.093-.013.074.05.131.102.17.064.047.125.1.2.128.116.042.25.039.387.045.317.015.947.113 1.358-.065.38-.163 1.98-.996 2.402-1.222.2-.11 1.074-.514 1.062-.674-.02-.252-.43-.243-.656-.243zm18.81-.255c-.087.038-.392.143-.386.23.01.125.192.18.304.218.084.029.16.076.236.115l.476.249.754.375c.365.19.737.365 1.116.52.39.161.788.353 1.217.43.366.067.79.048 1.192.048l.096-.007.162-.006.083-.006.052-.007.052-.007.038-.006a4.5 4.5 0 0 1 .116-.05c.09-.063.3-.277.211-.388-.082-.101-.433-.126-.571-.156a30.866 30.866 0 0 1-.896-.208c-1.064-.263-2.086-.607-3.104-.948l-.787-.285c-.116-.043-.228-.106-.36-.11zm-9.68-.725c.35 0 .693.03.962.186.417.242.54.74.479 1.215-.038.284-.134.556-.35.744-.213.183-.487.227-.774.264-.637.08-1.296-.137-1.477-.742a1.716 1.716 0 0 1-.08-.47l.011-.242c.027-.03.032-.105.032-.147.021-.022.033-.064.033-.096a.102.102 0 0 0 .032-.07.057.057 0 0 0 .018-.044c.035-.027.099-.12.099-.165.05-.028.077-.083.118-.122.11-.102.317-.228.473-.228.016-.017.04-.019.064-.019.033-.035.13-.032.182-.032.038-.042.131-.006.179-.032zm-9.757.165l-.152.042c-.133.056-3.212 1-4.672 1.307-.42.088-.847.146-1.281.209-.134.02-.416 0-.508.079-.06.053.117.335.168.411.128.19 1.639.253 2.31.077.272-.079 4.272-1.463 4.353-1.566.084-.106.064-.371.052-.42-.029-.121-.148-.139-.27-.139zm15.959.885c-.032-.029-.374-.194-.45-.043a.119.119 0 0 0-.01.044c.203.372.341.769.405 1.182l.01.01c.094.078.527-.254.537-.365.012-.137-.21-.393-.296-.513-.07-.099-.102-.233-.196-.315zm-11.699-.08c-.037-.098-.237-.022-.338.003-.097.076-.224.371-.3.483-.142.206-.548.434-.275.549.2.083.397.196.475.152.074-.417.223-.815.438-1.187zm15.874-1.034l-.227.099c-.104.041-.364.096-.302.252.051.128 1.278.487 1.654.62.979.334 1.817.62 2.848.845.75.164 1.548.348 2.378.348.034-.001.069-.003.102-.006l.071-.006.039-.006c.057-.029.112-.041.166-.077.083-.06.13-.146.193-.217.06-.065.149-.114.184-.192.016-.037.017-.083-.007-.116-.028-.035-.07-.045-.111-.056l-.573-.077-1.115-.178c-.498-.082-1-.19-1.488-.295a63.156 63.156 0 0 1-2.311-.532l-1.063-.275-.225-.068c-.072-.025-.13-.058-.213-.063zm-16.555.852c-.039-.072-.37-.124-.463-.071-.099.057-.22.212-.299.296-.058.06-.114.122-.17.181-.116.116-.356.316-.151.458.085.059.226.107.32.08.075-.035.146-.041.211-.096.065-.054.109-.134.152-.202.052-.077.224-.316.267-.353.09-.077.22-.136.133-.293zm13.09-.067c-.09-.04-.218-.027-.329-.027-.109.026-.234.072-.213.216.002.027.173.156.238.219.147.145.255.398.441.497.13.07.322.154.468.08a.212.212 0 0 0 .106-.303c-.134-.171-.316-.303-.471-.457-.075-.074-.146-.182-.24-.225zM13.523 20.7c-.076-.093-.523.037-.716.072l-1.256.216c-.663.12-3.268.505-3.91.576-.416.046-.83.093-1.256.127-.779-.037-.916.09-.818.295.043.089.085.205.17.27.104.076.971.25 1.307.25.403.013 2.194-.268 2.49-.34.461-.112 3.972-1.046 4.062-1.105.07-.046.013-.255-.073-.361zm2.869.578c-.128 0-.5.375-.638.485-.065.054-.226.193-.259.272-.063.153.034.235.135.309.093.068.377.025.503-.069.092-.068.684-.593.72-.654.171-.3-.262-.343-.461-.343zm14.93.02c-.12.032-.307-.019-.382.093-.041.06-.05.157-.012.216.047.07.7.597.777.637.103.051.236.048.364.048.108-.002.332-.091.305-.26a.207.207 0 0 0-.072-.117c-.099-.089-.221-.146-.33-.22-.091-.062-.195-.14-.287-.201-.084-.063-.158-.11-.242-.172a.312.312 0 0 0-.12-.023zm3.106-1.006c-.074.027-.162.065-.143.166.012.072.044.187.105.233.103.079.336.11.468.144l1.108.281c.545.139 1.094.253 1.648.383.67.157 1.364.295 2.055.406.38.06.762.128 1.154.178.202.025.398.062.61.062l.06-.007.11-.005.077-.007.057-.006a4.051 4.051 0 0 0 .168-.012c.028-.004.055-.005.084-.007l.064-.007.058-.006.058-.006.029-.004.03-.003.05-.006.04-.007.038-.006.038-.007.04-.006c.075-.035.157-.033.227-.08.097-.064.328-.38.205-.481-.097-.08-.624-.064-.788-.077-.499-.04-.994-.1-1.487-.146-.707-.066-1.41-.19-2.106-.278a66.35 66.35 0 0 1-2.453-.373c-.378-.064-.757-.127-1.133-.192-.165-.039-.287-.124-.471-.124zM45.53 17.58l-.78.072c-.517.04-1.042.098-1.565.13-.28.017-.563.005-.85.01a3.787 3.787 0 0 0-.355-.04c-.65-.049-1.938-.101-2.08-.11-.286-.017-2.231-.042-2.869.012-.416.035-.825.06-1.214.079-.871.041-1.736.097-2.634.083-.617-.009-1.197-.118-1.79-.164a12.41 12.41 0 0 0-.94-.033c-.292.006-.681.052-.84.067-.48.062-1.292.205-1.638.345a1.767 1.767 0 0 0-.368.215c-.14.11-.268.239-.217.452a.599.599 0 0 0 .123.248c.075.1.157.182.23.282.18.2.365.418.566.582.343.28.799.867.85 1.174.025.155-.248.322-.153.443.01.011.03.04.056.077.08.098.157.2.228.304a.261.261 0 0 0 .03.03c.06.036.173-.162.177-.208l.052-.267c0-.215-.059-.43-.153-.602-.13-.241-.292-.545-.417-.792-.054-.094-.106-.224-.161-.319-.156-.438.079-.668.448-.856.174-.089.359-.15.554-.194.07-.013.508-.123 1.522-.122h1.822c.192-.001.771-.043 1.552-.21.421-.086 3.351-.654 4.661-.501.092.01.116.16 0 .195-.199.058-.787.077-2.009.228-.734.09-1.385.245-2.034.37-.055.011-.23.05-.208.134.022.078.163.052.234.052l.921-.076c.263-.015.853-.033.94-.033h1.166l.097-.006.154-.006h2.203c.028-.003.51-.01.605-.01.422 0 .838-.01 1.262-.01.382 0 1.504-.03 1.566-.031.154 0 .522-.004.576-.006.039.001.276 0 .309-.013.05-.016.348-.133.48-.192.177-.067.572-.189.574-.255.003-.125-.313-.434-.42-.488-.077-.04-.164-.04-.263-.04zm-30.452 1.242c-.08 0-.15.017-.162.097-.016.098 0 .254.167.258.198.004.44-.257.556-.092.13.185-.546.297-.438.522.14.289.414.025.464.007.136-.063.562-.438.735-.191.153.217-.546.533-.63.637-.024.03-.074.193-.055.233.153.335.539.014.797-.266.096-.105.166-.162.262-.186.133-.034.248-.009.284.11a.19.19 0 0 1-.049.19c-.054.052-.656.482-.636.61.042.26.2.295.318.24.125-.055.478-.647.686-.569.055.021.123.03.145.083a.251.251 0 0 1-.027.232 1.95 1.95 0 0 1-.243.244.788.788 0 0 0-.171.19c-.098.174.047.254.208.254.057 0 .088-.032.127-.065.098-.083.2-.45.4-.353.208.104-.178.395-.14.602.057.156.307.188.377.072.076-.185.03-.47.108-.792a4.65 4.65 0 0 1 .385-.903c.064-.102.142-.183.172-.305a.352.352 0 0 0 .005-.026c.017-.128-.065-.235-.154-.314-.145-.13-.34-.211-.523-.27-.535-.177-1.109-.194-1.723-.222-.413-.02-.823-.027-1.245-.027zM9.512 17.53c-.244-.01-.68.006-.936.01-.464.008-1.537.054-1.989.089-.088.006-3.087.04-3.087.04-.418-.02-.918-.072-1.325-.11-.19.015-.435.428-.479.537-.013.034.212.207.288.24.2.098.738.38 1.335.414.535.03 5.024.078 5.12.084.927 0 2.259.028 3.182.028.367.005.701.075 1.063.075.132-.09.006-.153-.09-.183l-.586-.151a10.342 10.342 0 0 0-1.684-.361 16.764 16.764 0 0 0-1.48-.148c-.82.028-2.06.002-2.395-.093-.06-.014-.074-.18.015-.197.223-.061 1.558-.056 2.063-.054h.167c.318 0 .853.034 1.16.053.452.028.908.108 1.33.2.497.108.913.215 1.41.332.289.068.603.085.914.11l.973.002c.45 0 .917.017 1.36.03.643.02 1.283.009 1.88.115.161.03.315.086.469.136.463.15 1.073.524.854 1.13-.028.076-.369.49-.475.687-.055.1-.206.484-.22.67-.03.248-.056.438.073.527.02.014.044.01.072-.006.127-.178.27-.348.424-.51.053-.139-.104-.314.038-.55.105-.184.154-.36.323-.593.187-.262.937-.878 1.033-.984.072-.083.21-.218.26-.312.12-.185-.095-.431-.24-.589a1.269 1.269 0 0 0-.415-.3c-.212-.095-.719-.154-1.012-.188-.215-.025-.44-.026-.663-.046-.357-.034-.748-.02-1.101-.014l-.567.001c-.737.034-1.451.083-2.209.083-.422 0-.848-.031-1.263-.05-.412-.02-.811-.028-1.223-.046-.802-.039-1.536-.108-2.367-.108zm22.265 1.195l-.223.004c-.598.027-2 0-2.308.41-.081.106-.09.32-.073.445.012.07.185.476.399.736.44.613-.009 1.264.182 1.39.138.107.437-.046.452-.162.036-.125-.316-.437-.172-.568.188-.172.386.328.52.346.145.033.364-.164.269-.334-.038-.067-.474-.321-.323-.523.123-.163.338.045.474.158.262.214.45.151.52-.06.04-.127-.784-.49-.578-.697.224-.225.717.347.87.384.112.038.26-.077.28-.222.022-.153-.779-.42-.662-.616.12-.199.435.049.568.11.048.018.191.104.252.101.133 0 .189-.024.21-.174.026-.178-.554-.25-.462-.43.107-.213.384.028.52.042.198-.021.271-.113.257-.209-.012-.077-.093-.078-.157-.094-.41 0-.637-.052-1.038-.033zM15.64 20.68c-.126.006-.982.533-1.043.612-.042.054-.04.12-.02.185.016.051.031.105.071.145.094.094.304.096.445.096l.116-.044c.075-.042.136-.105.206-.16.145-.115.255-.197.4-.312.073-.052.242-.094.29-.174.121-.208-.32-.35-.465-.348zm16.411 0c-.142.008-.404.095-.428.28-.006.048.002.097.038.126.063.053.568.304.729.406.122.076.217.169.379.169.218-.007.295-.06.349-.092.094-.058.208-.2.126-.311-.072-.1-.226-.142-.33-.19-.116-.054-.23-.108-.347-.161-.078-.039-.39-.227-.516-.227zm-19.142-.693c-.193.02-1.604.154-2.118.186-.275.022-5.076.317-5.494.323-.078.006-1.092-.005-1.198.084-.054.046.006.317.059.367.097.093.276.12.404.155.373.104.708.222 1.14.222.029-.003 7.534-.949 7.67-.949.02-.019.04-.032.036-.062-.006-.068-.268-.274-.334-.304a.408.408 0 0 0-.165-.022zm11.062-2.366c-1.501 0-3.112.42-3.172.51-.139.216.16.208.153.508-.01.368-.299.615-.4.721-.382.401-.87.606-1.207 1.054-.025.034-.05.185-.016.231.089.118.298-.013.348-.052.71-.548 1.375-.768 2.18-1.016.2-.062 1.212-.271 2.52-.215 1.155.049 2.22.348 3.148.886.37.215.702.482 1.053.77.128.107.228-.049.232-.107.005-.066-.05-.16-.085-.217-.267-.44-.856-.839-1.264-1.312-.202-.235-.303-.32-.379-.454-.249-.417.132-.44.084-.632-.037-.152-1.516-.675-3.195-.675zm10.9 2.115c-.034.016-.07.026-.099.055-.096.097-.12.257.068.257.075-.022.28.009.354.02l.406.062 1.642.256c.66.106 1.324.215 1.996.289.472.052.94.134 1.417.178.734.07 1.46.171 2.236.171.047-.001.094-.004.14-.006l.084-.006.06-.007.063-.007.07-.005.059-.007.044-.006c.014-.002.026-.005.04-.006l.038-.007.039-.006.21-.055c.246-.074.372-.176.457-.417.019-.055.042-.131 0-.18-.04-.044-.1-.051-.159-.054l-.927-.001-1.263-.046c-1.56-.072-3.11-.196-4.656-.294l-1.572-.12c-.216-.017-.52-.058-.746-.058zm-19.79.212h-.047c-.286.056-.541.177-.81.267-.112.036-.255.062-.337.151a.21.21 0 0 0-.046.2c.012.051.035.127.07.167.073.08.263.157.391.157a.875.875 0 0 0 .229-.043l.63-.336c.072-.038.165-.05.224-.11.2-.205-.18-.48-.351-.452zm17.565.102l-.038.002c-.12.039-.393.186-.276.316.046.053.195.103.26.125.078.034.073.043.152.077l.264.122c.165.079.253.165.46.165.244-.005.354.032.475-.197.033-.059.011-.125-.024-.17-.057-.074-.381-.19-.522-.238-.276-.093-.712-.22-.79-.2zM3.03 19.147c-.107.04-.154.093-.168.21-.011.085.054.282.264.389.15.067.717.33.863.36.136.029 8.687-.465 8.7-.467.116-.053.43-.139.403-.32-.008-.051-.09-.102-.136-.12-.097-.037-1.15.058-1.229.059-.726 0-8.5-.111-8.697-.111zm29.971.127a.237.237 0 0 0-.227.155c-.03.083-.041.197.031.254.076.06.192.076.287.1l.456.117c.176.043.322.067.525.087.158.015.294-.02.335-.144.045-.145.029-.242-.085-.306-.054-.03-.273-.09-.594-.15a10.556 10.556 0 0 0-.728-.113zm-18.282-.012l-.054.006c-.3.09-.607.136-.918.193-.122.02-.283.027-.381.095a.214.214 0 0 0-.083.13c-.011.05-.004.109.027.144.045.054.332.177.519.146.296-.071.553-.164.828-.252.096-.028.22-.044.289-.119.075-.082.026-.173-.034-.244-.062-.071-.158-.114-.247-.093zm30.41-.25c-.072-.043-.936-.023-1.015-.019l-.947.002c-.54.025-1.118.01-1.674.019-.733.01-2.42.024-2.506.03h-1.626l-1.139-.001c-.1.004-.703.02-.894.019-.085-.002-.239-.012-.323 0-.141.022-.37.315-.094.315a2.416 2.416 0 0 0 .122-.02c.077-.024.178.005.258.01l.444.033 1.165.08.838.066c2.042.127 4.06.308 6.176.308.49 0 .927-.212 1.08-.26.066-.022.204-.037.256-.083.109-.094-.017-.437-.122-.5zM13.38 18.71l-.185.003c-.182.008-.065.296.026.395.12.132.479-.02.703-.04.15-.014.785-.013.776-.16-.014-.215-.463-.148-.766-.166-.292-.022-.477-.04-.739-.029zm21.215-.106c-.264-.01-.363.019-.656.04-.3.019-.86-.02-.874.19-.013.214.607.17.758.183.224.02.66.18.744.106.101-.089.209-.51.028-.519zM23.94 17.062c-1.758 0-3.246.471-3.446.57-.199.098-.108.266-.108.266s.13.109.268.03c.116-.067 1.428-.56 3.307-.56 1.878 0 3.4.639 3.549.668.15.03.271-.17.138-.276-.098-.079-1.776-.698-3.708-.698z" fill="#000"/></g></svg>