<svg width="48" height="48" viewBox="0 0 48 48" xmlns="http://www.w3.org/2000/svg"><g fill="none" fill-rule="evenodd"><path fill-opacity=".01" fill="#FFF" d="M0 0h48v48H0z"/><path d="M28.881 29.902c-.617.16-1.15-.18-1.046-1.002.577-8.888 6.004-10.354 12.79-9.57.213 6.472-5.362 9.034-11.744 10.572m-10.05-.06C12.45 28.306 6.874 25.744 7.087 19.272c6.786-.784 12.214.682 12.791 9.57.104.823-.43 1.163-1.047 1.002m22.33-11.498c-3.082-.514-6.536-.982-8.541-.715-2.88.682-4.032 2.93-5.322 5.054-.256.598-.773.423-.555-.135 1.015-2.233 2.322-3.982 4.356-5.098-2.381-.215-4.5-.3-6.395-.224-.535 1.683-.493 3.493-.626 5.233.022.585-.573.558-.537-.014-.085-1.744-.019-3.475-.447-5.219-2.117-.063-4.234 0-6.35.18 1.646.965 3.086 2.62 4.248 5.187.191.42-.38.677-.626.045-1.188-2.782-2.867-4.883-5.904-5.099-3.384.09-4.8.298-7.2.626-1.499.209-2.513.865-2.46 2.505.471 13.231 35.753 14.376 38.328.268.267-1.37-.198-2.34-1.968-2.594" fill="#000"/></g></svg>