<svg width="48" height="48" viewBox="0 0 48 48" xmlns="http://www.w3.org/2000/svg"><g fill="none" fill-rule="evenodd"><path fill-opacity=".01" fill="#FFF" d="M0 0h48v48H0z"/><path d="M22.966 4.8l.52.475.434.464.125.167h.46l.532.084.407.182.319.209.281.312 1.581-.03.213.041.224.057.054.1-.095.125-.407.125-.547.182-.308.266.559.141.406.24.464.486.547.13.658.474.418.616-.11.114-.308-.182-.38-.422h-.46l-.532-.126-.396-.14-.35-.183-.193-.083-.125.098.152.141.406.278.365.365.167.197.715.042.376.042.52.266.335.308.114.114-.015.125-.14-.042-.335-.24-.323-.125-.422.027-.278.03h-.322l-.198-.015-.152-.057-.099-.068-.069.083.195.236.364.198.673.323.335.152.38.083.026.141-.334.099-.392-.069-.365-.17-.49-.027-.475-.198-.296-.152-.21-.027.027.168.59.517.433.646.125.32.254.212.308.334.084.297.293.266.14.053-.098.156-.194-.057-.338-.182-.377-.35-.296-.224-.559-.323-.547-.434h-.095l.026.114.418.392.38.235.335.213.308.278.057.224.24.35.182.156.308.041.266.069.182.156-.125.11-.323.057-.297-.084h-.224l-.293-.152-.182-.255-.282-.099-.585-.166-.296-.069-.126.084.042.14.281.152.308.365.14.167.503.225.49.437.281.433.14.194.156-.012.054.084-.11.069-.092.037-.023.004-.418-.25-.155-.293-.407-.046-.32-.167-.338-.053.072.178.251.198-.026.126-.24-.027-.167-.126-.281-.083-.224-.046-.027.099.152.198.35.125.406.069.308.155.282.24.322.11.377.015.182.084-.068.152-.24.114-.448-.015-.448-.194-.278-.14-.281-.085h-.365l-.224.126.114.068.308.042.334.042.407.213.25.236.24.155.194.057-.11.084h-.24l-.293-.072-.182-.152-.224.042h-.418l-.407.026h-.407l-.182-.026-.015.11.197.125.46.156.48.099.318.236.266.311.297.236.308.042.365-.057.418-.137.125-.13.13-.01-.016.098-.14.137-.324.198-.235.11-.422.057-.59-.084-.334-.167-.63-.25-.59-.1-.319-.155-.14.098.14.114.71.278.59.307.38.339.14.194-.083.114-.224-.1-.49-.322-.339-.11h-.293l-.041.11.209.042.376.14.38.35.198.323.136.21.156.098.1-.042.083.015-.072.141-.32-.042-.307-.213-.24-.194-.464-.28-.433-.199-.376.016-.464-.224-.293-.198-.114.099-.057.505.225.814.828 1.356.757.94 1.387 1.162.965.654.308.24.7.573.687.658.32.433.24.297.364.501.266.521.099.361.741-.042.772-.433.6-.547.59-.741.155-.476.084-.421.053-.517v-.49l-.125-.909-.21-1.19-.322-.992-.168-.63-.167-.73.027-.7.057-.517.193-.52.354-.643.361-.49.505-.449.407-.35.24-.155.292-.152.069.053-.053.114-.574.49-.464.574-.35.715-.197.642-.042.574.015.308.042.13.125.01.646-.756.434-.418.376-.308.255-.421.167-.419.099-.098.053.151-.042.48-.335.684-.562.84-.277.448-.114.48-.027.516.099.449.167.098.182-.03.168-.376.14-.225.35-.422.125-.083.225-.335.125-.14v-.24l.156.073.11.152-.027.167-.125.338-.338.532-.236.517-.114.52-.053.419.069.657.11.631.129.616.11.852-.015.687-.069.768-.209.48-.254.5-.449.605-.35.308-.39.21-.366.166-.266.057-.068.126.194.323.224.448.03.225v.266l-.083.532-.016.475.016.323.095.323.015.068-.057.114-.126-.045-.193-.433-.016-.012-.14-.437-.057-.631-.095-.475-.225-.407-.182-.224-.14-.068-.115.057.03.167.252.35.125.448v.642l-.099.646-.11.49-.251.45-.308.49-.129.25-.194.267-.167.224.042.25.053.141-.095.13h-.182l-.1-.297-.026-.308.027-.266.14-.433.236-.506.255-.532.083-.547.027-.403-.057-.255-.068-.266-.069-.068h-.084l-.072.152-.057.323-.053.464-.114.319v.38l.057.224-.042.1-.083.01-.1-.14-.083-.544v-.688l.027-.323.03-.209-.045-.308-.027-.323-.099-.235-.11-.073-.126.031-.114.11-.026.338-.042.445-.14.479-.198.433-.21.38-.25.445-.35.395-.338.392-.335.35-.49.418-.365.311-.308.194-.167.099-.156.251-.152.52-.057.194v.339l.027.25.125.24.255.32.16.273.072.167.06.29.016.307.068.167-.099.125-.042.115-.11.11-.463.254-.46.308-.605.559-.323.338-.152.308-.182.11-.224.126-.156.114-.027.25-.125.309-.24.338-.194.25-.182.115-.114.083-.11-.03-.1-.027.028.14.056.142-.098.669-.183.17-.194.084h-.125l-.057.14-.365.168-.277.167-.266.027h-.616l-.168-.179-.015-.281.084-.35.14-.422.24-.418.391-.406.32-.35.281-.35.126-.254.235-.225.395-.152.194-.114.449-.49.49-.532.49-.631.24-.334.152-.251.057-.156v-.126l-.084-.182-.433-.532-.365-.574-.266-.548-.338-.699-.266-.589-.11-.448-.084-.768.084-.688.167-.658.281-.505.281-.464.21-.361.068-.24.03-.475v-.224l.084-.182.11-.297.126-.137-.012-.129h-.171l-.179.088-.087.193-.027.308-.041.392-.057.353-.266.46-.054.323-.224.24-.156.152-.197.026-.32-.125-.35-.25-.129-.335-.026-.323-.57-.772-.548-.464-.634-.452-.688-.467-.536-.285-.715-.384-.882-.677-.471-.418-.551-.605-.456-.452-.285-.422-.149-.28.05-.119.083-.216H16.98l-.555-.187-.433-.25v-.251l-.471-.27-.973-.471-.403-.149-.388-.235-.27-.236h-.182l-.236.133-.133.353.084.59.232.486.137.62.167.669.201.471.32.369-.016.182.03.285.172.053.467.202.251.25.137.202.034.118c0 .015 0 .133.015.133l.084.186v.654l-.068.285-.115.201-.102.236-.167.05-.202-.016-.304-.186-.418-.403-.285-.418-.186-.471-.266-.403-.236-.236-.255-.201-.098-.236-.103-.669-.133-.437-.05-.388-.102-.414-.148-.59-.118-.603-.236-.772-.103-.604.02-.335.182-.456.236-.403.285-.25.27-.168.353-.019.604.02.502.098.52.102.404.035.285.064.083-.083-.083-.167-.267-.118-.27-.217-.303-.27-.285-.334-.251-.369-.236-.27-.216-.118-.153-.049-.117.034-.118.149-.05.235-.015.27-.053.201-.065.236-.152.201-.167.149-.152.137-.103.064-.216.02-.118.182-.152.136-.167.27-.168.517-.068.339v.3l.053.32.1.42.102.404.083.334.065.27-.099.335-.25.402-.29.35-.201.182-.217.07-.117-.085-.153-.35.02-.436-.05-.266.084-.305v-.737l.015-.422.015-.25.118-.251.186-.438.068-.52.118-.418.217-.422.118-.452.133-.453.118-.285.019-.486.133-.407.133-.266.118-.437.102-.285.148-.369.29-.202.334-.186.47-.098.37.064.418.152.388.32.353.284.285.217.551.289.49.217.335.216.3.137.152.034.236-.118.167-.102.167-.217.236-.27.369-.186.437-.266.285-.236.236-.167.186-.22.133-.438.25-.265.396-.335.43-.43.338-.467.376-.475.312-.487.091-.247.137-.357.13-.391.128-.358.091-.285.046-.247.02-.201-.092-.156-.167-.065-.384-.026-.3.053-.195-.027-.357-.11-.273-.026-.175-.103-.213-.027-.217.012-.148-.05-.194.038-.228.046-.346.182-.24.057-.22.008h-.174l-.217-.027-.103-.09.012-.111.06-.103.312-.09.414-.157.137-.072.038-.099-.038-.102-.163-.008-.407.163-.3.092-.266.072-.164.011-.136-.072-.156-.14v-.255l-.012-.24.012-.17.117-.15.175-.303.183-.274.072-.13.065-.189.083-.175.145-.038.376-.008.274-.007.311-.076.331-.144.365-.24.46-.21.402-.284.331-.175.217-.144.122-.057.201-.073.045-.072-.037-.091-.43-.194-.292-.072-.248-.076-.323-.015-.152.007-.148.065-.13.038-.136-.03-.064-.11.056-.08.183-.012.228-.072.304-.065.201.027.156-.034.004-.149-.11-.018-.266.01-.057-.166.479-.1.292-.01.631.136.643.183.353-.027.11-.099-.015-.167-.152-.198.015-.167.32-.532zm1.12 37.138l-.083.004-.118.072-.155.156-.057.114-.02.099.016.08.05.037h.045l.106-.022.11-.072.069-.103.057-.11.034-.14-.011-.08-.042-.035zm3.334-3.922l-.148.095-.099.106-.524.528-.434.468-.308.342-.015.095.034.057.073.004.11-.072.198-.18.25-.227.27-.282.255-.247.224-.262.167-.247.046-.11-.046-.057-.053-.011zm-5.063-9.53l.213.066.213.102.403.3.357.27.282.27.224.289.209.338.11.346.046.323.235.167.335.248.167.132.08.259-.068.304-.054.604v.513l.065.529.148.616.202.547.254.524.19.361.046.29-.156.357-.145.292-.27.069-.505-.023-.19-.137-.49-.224-.555-.19-.563-.168-.771-.167-.471-.068-.692-.088-.213.057-.179-.057-.35-.023-.277.012-.114-.034-.064-.133-.137-.069-.323.103-.38.087-.449.046-.502-.012-.35-.114-.322-.178-.282-.202-.178-.076-.3-.414-.16-.258-.012-.156.057-.08.168-.046.235-.098.346-.023h.35l.38.034.502.012.315.022.289.1.506.079h.212l.156-.068.293-.012.254.046.225.098.338.149.669.19.551.099.627.08.76.045.434-.023.144-.057.034-.156-.011-.19-.259-.346-.307-.425-.392-.662-.327-.592-.213-.403-.3-.684-.224-.536-.27-.898-.156-.68-.045-.304.068-.167.156-.103.178-.03zm4.246 6.067h-.06l-.027.034-.008.114v.19l.038.205.065.149.136.224.092.133.049.023.027-.004.015-.034-.034-.175-.034-.087-.004-.065-.004-.182-.042-.228-.06-.172-.085-.098-.064-.027zm-5.127.072l-.05.02-.011.08.038.071.255.084.357.11.452.114.198.015.205.012.198.034.224.038.13-.008.04-.053v-.072l-.033-.046-.118-.03-.21-.046-.258-.019-.273-.042-.316-.034-.19-.026-.156-.034-.148-.061-.334-.107zm-3.455-.33l-.103.003-.137.027-.118.038-.034.05-.004.068.061.076.042.034.091.027.103-.004.05-.016.06-.072.034-.08.015-.064-.01-.057-.05-.03zm8.38-3.007l-.125.015-.14.175-.156.224-.095.365-.042.266.004.194.057.171h.072l.026-.05.023-.075.076-.263.1-.224.052-.144.107-.297.076-.243-.034-.114zm4.57-1.972l-.096.03-.091.114.015.182.16.22.022.24.039.069.072.018.08-.045.022-.106.038-.118.016-.126v-.167l-.023-.125-.088-.11-.076-.069-.09-.007zm4.659-5.8l-.099.098.02.179.03.32.034.337.023.293-.016.335-.015.372-.068.334-.08.293-.137.285-.178.293-.183.285-.194.262-.178.236-.1.178-.071.164.015.121.09.042.172-.042.334-.319.293-.342.194-.274.171-.319.114-.292.099-.335.072-.392.008-.178v-.715l-.057-.353-.08-.369-.099-.308-.05-.155-.064-.035zM19.647 24.7l-.072.072-.007.19.041.206.11.17.18.187.273.266.228.179.312.285.285.224.27.183.665.448.43.285.254.16.099.007-.035-.057-.049-.08-.255-.24-.315-.284-.353-.315-.64-.556-.193-.216-.205-.224-.163-.202-.168-.167-.156-.19-.213-.205-.197-.118-.126-.008zm6.412 1h-.106l-.08.015-.053.06-.072.202-.03.16-.061.289-.02.232.054.064.11.015.057-.045.027-.122.083-.175.084-.095.091-.083.057-.133-.015-.225-.08-.117-.046-.042zM12.46 22.808h-.042l-.022.035-.042.296.007.3.046.259.087.273.088.175.06.133.038.073.05.041h.026l.023-.034.02-.103-.054-.353-.038-.217-.087-.247-.072-.232-.004-.182-.042-.179-.042-.038zm11.832-2.713l-.152.041-.053.266.11.464.266.673.335.543.38.48.418.417.25.24.48.25-.616-.797-.532-.783-.396-.616-.152-.422-.083-.407-.1-.277-.155-.072zm-9.795 1.763l-.121.004.091.068.266.16.236.175.239.148.103.046.148.022.114-.007.019-.061-.015-.076-.092-.084-.174-.08-.244-.106-.208-.102-.229-.058-.133-.049zm2.3-3.109l-.084.023-.099.14-.148.278-.076.289-.084.292-.14.308-.11.183-.107.114.008.099.076.053.133-.05.125-.094.247-.308.141-.43.16-.448.057-.327-.023-.092-.076-.03zm5.83-.41l-.137.019-.144.114-.095.121v.122l.061.076.072.095.13.03.193-.003.08-.046.038-.114-.019-.16-.015-.152-.038-.068-.126-.034zm-10.163-.673l-.122.034-.083.099-.16.277-.072.38-.02.202v.148l.035.076.099-.027.182-.28.103-.335.08-.297.003-.209-.045-.068zm1.832.665l-.023.042.011.083.046.057.103.103.11.091.13.072.09.057.038-.003.02-.034-.004-.065-.05-.072-.08-.095-.133-.08-.083-.076-.072-.065-.065-.011-.038-.004zm6.754-1.627h-.304l-.498.061-.498.156-.24.099-.068.076-.007.102.026.042.08.012.114-.008.175-.038.179-.05.224-.037.201-.02.228.004h.27l.217.023.175.053.186.054.121.015.08-.015.023-.073-.011-.102-.187-.183-.235-.118-.251-.053zm-7.815-.102l-.098.007-.19.023-.092.065-.03.102.026.076.107.042.175-.019.182-.068.053-.088-.003-.064-.061-.057-.069-.02zm9.886-4.253l-.133.022-.174.167-.339.54-.357.692-.201.399-.225.464-.273.422-.069.16.012.056.072.004.224-.087.323-.339.426-.596.266-.494.24-.396.178-.467.08-.293.007-.163-.057-.091zm2.805 1.334l-.102.003-.073.03-.064.035-.076.069-.015.072.03.057.057.019.046.007h.114l.091-.03.118-.05.015-.098-.042-.08-.099-.034zm-2.082-3.25l-.168.08-.11.08-.236.144-.205.099-.118.053-.049.087.046.061h.133l.212-.004.206-.083.205-.1.148-.174.042-.103v-.113l-.106-.027zm-.415-.517l-.095.008-.129.087-.144.137-.126.16-.06.09.01.07.084.026.175-.046.171-.106.145-.137.034-.13v-.117l-.065-.042zm-.973-.243h-.05l-.14.087-.232.145-.38.27-.057.034-.049.068.034.065h.194l.217-.05.212-.102.118-.183.046-.156.095-.076-.008-.102zm-4.397-.559l-.122.06-.148.206-.061.21.027.147.072.046.209-.046.156-.087.11-.11.06-.205-.06-.1-.133-.11-.11-.011zm7.137-.84h-.09l-.061.076-.057.076-.092.099-.064.163v.145l.03.08-.007.083.057.02.068-.008.202-.084.174-.091.183-.103.14-.05.084-.022.084-.126-.061-.057-.118.008-.14.03-.157.061-.11.008-.015-.084.015-.16-.065-.064zm-3.39-.357l-.255.011-.159.133-.072.148.05.133.17.1.183.098.205.084h.17l.16-.061.012-.16-.06-.182-.073-.171-.144-.099-.187-.034zm-1.094-.061l-.107.015-.14.068-.308.145-.323.144-.323.156-.175.148.11.012.217-.015.224-.057.361-.1.262-.159.118-.099.106-.026.088-.023.046-.08-.07-.11-.086-.02zm1.08-2.999l.14.042.46.558.03.324h-.448l-.255-.183-.182-.099.015-.194.156-.14-.016-.167.1-.141z" fill="#000"/></g></svg>