<svg width="48" height="48" viewBox="0 0 48 48" xmlns="http://www.w3.org/2000/svg"><g fill="none" fill-rule="evenodd"><path fill-opacity=".01" fill="#FFF" d="M0 0h48v48H0z"/><path d="M24 9.23c8.142 0 14.77 6.628 14.77 14.786 0 8.126-6.628 14.753-14.77 14.753-8.143 0-14.77-6.627-14.77-14.753 0-8.158 6.627-14.785 14.77-14.785zm.033 1.999s-7.187-.167-10.681 3.963C11.9 16.99 11.44 19.72 11.44 23.484c.23 3.896 1.318 7.393 3.692 10.223 1.813 2.165 4.978 3.197 8.868 3.197h.066c3.923 0 7.055-1.032 8.868-3.197 2.374-2.83 3.461-6.327 3.692-10.223 0-3.763-.429-6.494-1.912-8.292-3.495-4.13-10.648-3.963-10.648-3.963zm0 1.964c3.857.034 6.462.534 8.506 1.665 1.186.7 1.417 2.399 1.417 4.23 0 .1-.033.233-.033.366-.033 4.696-1.121 9.791-2.176 12.388-.429 1.1-.857 1.4-1.286 1.632-.988.6-1.813.833-2.538 1-1.088.266-2.044.3-3.264.3a9.537 9.537 0 0 1-.57.032h-.056c-.033 0-.626-.033-.626-.033-1.187 0-2.176-.033-3.264-.3-.725-.166-1.55-.4-2.539-.999-.428-.233-.857-.532-1.285-1.632-.957-2.297-2.308-8.858-2.341-12.221v-.167c0-2.464.527-3.996 1.55-4.596 2.043-1.131 4.648-1.63 8.505-1.665zm2.67 4.963H23.34l.165 11.556s.627 0 1.418.033c0-1.167-.033-3.264-.066-5.229h1.747c.066.866.099 4.362.099 5.229.621.025 1.121.031 1.307.032h.078c.033-.632.066-1.232.066-1.797v-.966c-.066-6.794-1.451-8.858-1.451-8.858zm5.34 0h-4.12v1.365h1.187v10.224h1.385l.33-10.224h1.219v-1.365zm-9.593 0h-1.747l.33 11.589h1.417v-11.59zm-2.241 0h-3.363l.33 11.589h1.384v-5.262h1.253V23.05H18.56v-3.497h1.649v-1.398zm5.57 1.431c.199.633.495 1.732.694 3.497h-1.616c-.033-1.765-.066-3.197-.066-3.497z" fill="#1A171B"/></g></svg>