<svg width="182" height="182" viewBox="0 0 182 182" fill="none" xmlns="http://www.w3.org/2000/svg"><path d="M91 181c49.706 0 90-40.294 90-90S140.706 1 91 1 1 41.294 1 91s40.294 90 90 90z" fill="#fff" stroke="#000" stroke-width="2" stroke-miterlimit="10" stroke-linecap="round" stroke-linejoin="round"/><path d="M152.564 130.292H29.366c-4.553 0-8.265-3.712-8.265-8.265V53.389c0-4.552 3.712-8.265 8.265-8.265h123.198c4.553 0 8.265 3.713 8.265 8.265v68.708c0 4.483-3.712 8.195-8.265 8.195z" fill="#fff" stroke="#000" stroke-width="2" stroke-miterlimit="10" stroke-linecap="round" stroke-linejoin="round"/><path d="M145.63 142.549H36.3c-4.553 0-8.265-3.712-8.265-8.265V41.132c0-4.552 3.712-8.264 8.265-8.264h109.33c4.553 0 8.265 3.712 8.265 8.264v93.222c0 4.553-3.712 8.195-8.265 8.195z" fill="#fff" stroke="#000" stroke-width="2" stroke-miterlimit="10" stroke-linecap="round" stroke-linejoin="round"/><path d="M134.424 171.405H47.506c-5.673 0-10.226-4.623-10.226-10.226V19.14c0-5.673 4.623-10.226 10.226-10.226h86.918c5.673 0 10.226 4.623 10.226 10.226V161.11c.07 5.673-4.553 10.296-10.226 10.296z" fill="#fff" stroke="#000" stroke-width="2" stroke-miterlimit="10" stroke-linecap="round" stroke-linejoin="round"/><path d="M84.627 157.607a2.942 2.942 0 1 0 0-5.883 2.942 2.942 0 0 0 0 5.883z" fill="#000" stroke="#000" stroke-width="2" stroke-miterlimit="10" stroke-linecap="round" stroke-linejoin="round"/><path d="M70.198 157.607a2.942 2.942 0 1 0 0-5.883 2.942 2.942 0 0 0 0 5.883zM99.054 157.607a2.942 2.942 0 1 0 0-5.883 2.942 2.942 0 0 0 0 5.883zM111.802 157.607a2.942 2.942 0 1 0-.001-5.883 2.942 2.942 0 0 0 .001 5.883z" fill="#fff" stroke="#000" stroke-width="2" stroke-miterlimit="10" stroke-linecap="round" stroke-linejoin="round"/><path d="M64.736 28.525l2.45 4.973c.14.28.421.49.701.49l5.463.77c.77.14 1.05 1.051.49 1.612l-3.922 3.852c-.21.21-.35.49-.28.84l.91 5.463c.14.77-.63 1.331-1.33.98l-4.903-2.59a.893.893 0 0 0-.84 0l-4.903 2.59c-.7.351-1.47-.21-1.33-.98l.91-5.463c.07-.28-.07-.63-.28-.84L53.95 36.37c-.56-.56-.28-1.471.49-1.611l5.463-.77c.28-.07.56-.21.7-.49l2.451-4.974c.35-.7 1.331-.7 1.681 0zM92.05 25.724l3.152 6.443c.21.35.49.63.91.63l7.075 1.051c.98.14 1.401 1.331.7 2.031l-5.113 4.973c-.28.28-.42.7-.35 1.05l1.19 7.075c.14.98-.84 1.75-1.75 1.26l-6.374-3.361c-.35-.21-.77-.21-1.12 0l-6.374 3.361c-.91.49-1.89-.28-1.75-1.26l1.19-7.074c.07-.42-.07-.77-.35-1.05l-5.113-4.974c-.7-.7-.35-1.89.7-2.03l7.074-1.051c.42-.07.7-.28.91-.63l3.152-6.444c.56-.91 1.821-.91 2.242 0zM118.875 28.525l2.451 4.973c.141.28.421.49.701.49l5.463.77c.77.14 1.05 1.051.49 1.612l-3.922 3.852c-.21.21-.35.49-.28.84l.91 5.463c.14.77-.63 1.331-1.33.98l-4.903-2.59a.894.894 0 0 0-.841 0l-4.902 2.59c-.701.351-1.471-.21-1.331-.98l.91-5.463c.071-.28-.07-.63-.28-.84l-3.922-3.852c-.56-.56-.28-1.471.49-1.611l5.463-.77c.281-.07.561-.21.701-.49l2.451-4.974c.42-.7 1.401-.7 1.681 0z" fill="#FFCF52"/><path d="M114.323 135.615H67.607A10.492 10.492 0 0 1 57.1 125.109a10.492 10.492 0 0 1 10.506-10.506h46.716a10.492 10.492 0 0 1 10.506 10.506 10.492 10.492 0 0 1-10.506 10.506z" fill="#000" stroke="#000" stroke-width="2" stroke-miterlimit="10" stroke-linecap="round" stroke-linejoin="round"/><path d="M57.101 76.782h67.728M66.697 91.84h48.607" stroke="#000" stroke-width="2" stroke-miterlimit="10" stroke-linecap="round" stroke-linejoin="round"/></svg>