<svg width="182" height="182" viewBox="0 0 182 182" fill="none" xmlns="http://www.w3.org/2000/svg"><path d="M91 181c49.706 0 90-40.294 90-90S140.706 1 91 1 1 41.294 1 91s40.294 90 90 90z" fill="#fff" stroke="#000" stroke-width="2" stroke-miterlimit="10" stroke-linecap="round" stroke-linejoin="round"/><path d="M42.253 66.346v68.498a12.375 12.375 0 0 0 12.397 12.397h75.642a12.375 12.375 0 0 0 12.397-12.397V91.14a12.375 12.375 0 0 0-12.397-12.397H54.65a12.375 12.375 0 0 1-12.397-12.397z" fill="#000" stroke="#000" stroke-width="2" stroke-miterlimit="10" stroke-linecap="round" stroke-linejoin="round"/><path d="M42.253 66.346A12.375 12.375 0 0 1 54.65 53.95h75.642a12.375 12.375 0 0 1 12.397 12.397M142.688 91.07V66.346M42.5 68h100" stroke="#000" stroke-width="2" stroke-miterlimit="10" stroke-linecap="round" stroke-linejoin="round"/><path d="M138.486 124.549h-18.91c-5.463 0-9.946-4.413-9.946-9.946 0-5.463 4.413-9.945 9.946-9.945h18.91" stroke="#fff" stroke-width="2" stroke-miterlimit="10" stroke-linecap="round" stroke-linejoin="round"/><path d="M120 45c6.904 0 12.5-5.596 12.5-12.5S126.904 20 120 20s-12.5 5.596-12.5 12.5S113.096 45 120 45z" fill="#fff" stroke="#000" stroke-width="2"/><path d="M119.506 118.315a3.712 3.712 0 1 0 0-7.424 3.712 3.712 0 0 0 0 7.424z" fill="#000" stroke="#fff" stroke-width="2" stroke-miterlimit="10" stroke-linecap="round" stroke-linejoin="round"/><path d="M113.106 67c3.389-3.635 5.394-8.482 5.394-13.9 0-11.119-8.713-20.1-19.5-20.1-10.787-.07-19.5 8.91-19.5 20.1 0 5.418 2.075 10.265 5.394 13.9h28.212z" fill="#FFCF52"/><path d="M62 36c9.665 0 17.5-7.835 17.5-17.5S71.665 1 62 1 44.5 8.835 44.5 18.5 52.335 36 62 36z" fill="#fff" stroke="#000" stroke-width="2"/></svg>