<svg width="182" height="182" viewBox="0 0 182 182" fill="none" xmlns="http://www.w3.org/2000/svg"><path d="M91 181c49.706 0 90-40.294 90-90S140.706 1 91 1 1 41.294 1 91s40.294 90 90 90z" fill="#fff" stroke="#000" stroke-width="2" stroke-miterlimit="10" stroke-linecap="round" stroke-linejoin="round"/><path d="M97.023 154.385l-19.33 13.588c-3.292 2.311-7.284 3.292-11.277 2.731-3.852-.49-7.844.701-11.066 2.872" fill="#fff"/><path d="M97.023 154.385l-19.33 13.588c-3.292 2.311-7.284 3.292-11.277 2.731-3.852-.49-7.844.701-11.066 2.872" stroke="#000" stroke-width="2" stroke-miterlimit="10" stroke-linecap="round" stroke-linejoin="round"/><path d="M63.335 155.996c-6.304 0-11.416-5.113-11.416-11.416V32.658c0-6.304 5.112-11.417 11.416-11.417h57.642c6.303 0 11.416 5.113 11.416 11.417V144.58c0 6.303-5.113 11.416-11.416 11.416H63.335z" fill="#000"/><path d="M120.907 21.942c5.883 0 10.716 4.832 10.716 10.716V144.58c0 5.883-4.833 10.716-10.716 10.716H63.335c-5.883 0-10.716-4.833-10.716-10.716V32.658c0-5.884 4.833-10.716 10.716-10.716h57.572zm0-1.401H63.335c-6.724 0-12.117 5.463-12.117 12.117V144.58c0 6.724 5.463 12.117 12.117 12.117h57.642c6.724 0 12.117-5.464 12.117-12.117V32.658c0-6.724-5.463-12.117-12.187-12.117z" fill="#000"/><path d="M64.175 149.482a5.799 5.799 0 0 1-5.813-5.813v-110.1a5.799 5.799 0 0 1 5.813-5.814h9.806c.21 3.642 3.221 6.514 6.863 6.514h22.413c3.642 0 6.653-2.872 6.864-6.514h9.805a5.799 5.799 0 0 1 5.813 5.813V143.67a5.798 5.798 0 0 1-5.813 5.813H64.175z" fill="#fff"/><path d="M119.996 28.455c2.802 0 5.113 2.312 5.113 5.113V143.67c0 2.802-2.311 5.113-5.113 5.113H64.175c-2.801 0-5.113-2.311-5.113-5.113v-110.1c0-2.802 2.312-5.114 5.113-5.114h9.175c.56 3.642 3.712 6.514 7.494 6.514h22.413c3.782 0 7.004-2.802 7.494-6.514h9.245zm0-1.4H109.49v.28c0 3.432-2.801 6.163-6.163 6.163H80.914c-3.432 0-6.163-2.801-6.163-6.163v-.28H64.245c-3.572 0-6.514 2.941-6.514 6.513V143.67c0 3.572 2.942 6.514 6.514 6.514h55.821c3.572 0 6.514-2.942 6.514-6.514v-110.1c-.07-3.573-2.942-6.515-6.584-6.515z" fill="#000"/><path d="M9.895 130.082l20.241-18.21c4.413-4.063 7.284-9.456 8.125-15.409l4.972-34.249c.28-1.89 1.822-3.362 3.783-3.572 2.31-.21 4.272 1.47 4.482 3.782l3.782 41.743c.63 7.284-.14 14.639-2.451 21.642l-3.362 9.806" fill="#fff"/><path d="M9.895 130.082l20.241-18.21c4.413-4.063 7.284-9.456 8.125-15.409l4.972-34.249c.28-1.89 1.822-3.362 3.783-3.572 2.31-.21 4.272 1.47 4.482 3.782l3.782 41.743c.63 7.284-.14 14.639-2.451 21.642l-3.362 9.806" stroke="#000" stroke-width="2" stroke-miterlimit="10" stroke-linecap="round" stroke-linejoin="round"/><path d="M133.093 60.113l5.393-3.292c2.732-1.68 6.304-.91 8.125 1.751 1.611 2.311 1.331 5.463-.561 7.494l-12.887 13.728" fill="#fff"/><path d="M133.093 60.113l5.393-3.292c2.732-1.68 6.304-.91 8.125 1.751 1.611 2.311 1.331 5.463-.561 7.494l-12.887 13.728" stroke="#000" stroke-width="2" stroke-miterlimit="10" stroke-linecap="round" stroke-linejoin="round"/><path d="M131.483 86.307l-11.417 11.207c-1.961 1.89-2.451 4.832-1.33 7.284 1.611 3.502 5.953 4.762 9.175 2.661l13.517-8.545c3.502-2.17 4.763-6.653 3.012-10.365-2.311-4.973-8.965-6.164-12.957-2.242z" fill="#fff" stroke="#000" stroke-width="2" stroke-miterlimit="10" stroke-linecap="round" stroke-linejoin="round"/><path d="M135.055 102.977l-11.557 7.634c-1.961 1.331-2.871 3.712-2.311 5.953.841 3.222 4.272 5.043 7.354 3.782l12.957-4.972a7.034 7.034 0 0 0 4.273-8.335c-1.261-4.623-6.724-6.724-10.716-4.062zM133.654 122.588l-3.152 1.891c-2.241 1.4-3.362 4.062-2.732 6.653.771 3.152 3.852 5.043 7.004 4.483l3.642-.701c3.782-.77 6.164-4.552 5.183-8.264-1.121-4.343-6.093-6.374-9.945-4.062z" fill="#fff" stroke="#000" stroke-width="2" stroke-miterlimit="10" stroke-linecap="round" stroke-linejoin="round"/><path d="M73.14 59.483h37.821M73.14 77.202h37.821M73.14 94.922h37.821" stroke="#000" stroke-width="2" stroke-miterlimit="10" stroke-linecap="round" stroke-linejoin="round"/><path d="M103.887 124.339H80.214a7.055 7.055 0 0 1-7.074-7.074 7.054 7.054 0 0 1 7.074-7.074h23.673a7.054 7.054 0 0 1 7.074 7.074c0 3.922-3.222 7.074-7.074 7.074z" fill="#FFCF52"/></svg>