<svg width="48" height="48" viewBox="0 0 48 48" xmlns="http://www.w3.org/2000/svg"><g fill="none" fill-rule="evenodd"><path fill-opacity=".01" fill="#FFF" d="M0 0h48v48H0z"/><path d="M32.478 28.962L24 18.966l-8.445 9.967c-4.16-1.178-6.901-3.242-6.901-5.778 0-4.023 6.819-7.795 15.33-7.795 8.512 0 15.494 3.772 15.494 7.795 0 2.556-2.785 4.632-7 5.807M24 14.769c-10.196 0-18.462 4.232-18.462 9.45 0 4.225 5.42 7.803 12.896 9.012L24 19.73l5.567 13.5c7.476-1.209 12.895-4.787 12.895-9.012 0-5.218-8.265-9.45-18.462-9.45" fill="#000"/></g></svg>