<svg width="48" height="48" viewBox="0 0 48 48" xmlns="http://www.w3.org/2000/svg"><g fill="none" fill-rule="evenodd"><path fill-opacity=".01" fill="#FFF" d="M0 0h48v48H0z"/><path d="M45.567 31.45c-1.832 1.783-3.604 1.181-3.604 1.181.138.394.257.705-.246 1.338 0 0-.818 1.026-2.767-.342 0 0 1.832.435 2.298-.434 0 0 .374-.623-.177-.975 0 0-.256-.228-.984-.497 0 0 .764.062 1.365.352 2.145 1.036 4.115-.624 4.115-.624zm-28.921-9.526c1.437 1.079 3.465 1.618 3.465 1.618-1.26.311-2.639-.27-2.639-.27.355.747.178 1.639.178 1.639.832.482 1.707.812 2.464 1.035 0 0 1.225.315 4.967.118.083-.004.169 0 .256 0 0 0 1.128-.069 1.625 1.058 0 0 .994 3.608 4.794 3.644l1.996.012s1.971.009 3.192 1.15c0 0 .965.975 1.437 1.348 0 0-2.286-1.772-4-1.772l-1.896-.012c-3.821.104-5.851-3.888-6.04-4.278l-.015-.03s-.181-.566-1.33-.746c0 0-.313-.102-.945-.072-2.56.126-4.117-.012-4.117-.012-1.587-.192-2.723-.676-2.723-.676-.493.622-1.832.705-1.832.705-1.24 0-3.406-1.037-3.406-1.037-1.339-.518-1.812-.311-1.812-.311-.177.041-.138.249-.138.249.099.394-.256.663-.256.663.158-.414-.098-.6-.098-.6-.217-.105-.217-.333-.217-.333 0-.477.887-.518.887-.518 1.102 0 2.52.58 2.52.58 3.427 1.182 3.8-.27 3.8-.27.571-.787-.117-2.882-.117-2.882zm16.253 6.022s1.004.435 2.038.435h.798s1.358 0 1.92.872c0 0 .856 1.586 2.037 2.302 0 0-1.857-.743-2.6-2.116 0 0-.176-.435-1.033-.497l-1.163-.083s-1.218-.062-1.997-.913zM7.695 16.616c6.705 0 15.803 4.432 15.803 4.432 4.77 2.177 8.33 4.122 8.33 4.122 2.85 1.508 6.159 3.577 6.159 3.577s1.685 1.102 3.615 1.91c0 0 1.456.529 2.501-.04l.116-.08c.396-.241 1.015-.605 1.202-.627 0 0 .72-.057.732.636 0 0 .034.22-.34.623 0 0 .123-.466-.306-.637 0 0-.198-.15-1.064.324l-.064.03s-1.34.808-2.954.041c0 0-1.767-.752-3.572-1.93 0 0-1.86-1.136-2.436-1.479-3.214-1.909-6.78-3.67-6.78-3.67.473.435 1.508 1.742 1.508 1.742a47.736 47.736 0 0 0 1.567 1.652l.028.028c-1.079-.653-2.01-1.571-2.01-1.571a14.618 14.618 0 0 0-1.026-1.042c-.923-.778-2.094-1.28-2.094-1.28-1.144-.528-2.33-.186-2.33-.186-.062.011-.07-.016-.07-.016-.014-.027.016-.048.016-.048.75-.404 2.157-.353 2.157-.353-.7-.331-1.96-.818-1.96-.818l-3.613-1.359c-3.338-1.285-4.775-1.534-4.775-1.534-.394-.083-.424.02-.424.02-.039.052.03.124.03.124.345.602.423 1.017.423 1.017-2.264-2.489-6.291-2.706-6.291-2.706-.778-.01-1.36.695-1.36.695-.097.103.011.175.011.175 1.34 1.079 1.752 2.033 1.752 2.033-1.565-1.576-2.806-1.71-2.806-1.71-1.181-.229-1.161-.685-1.161-.685 1.348.518 2.47-.716 2.47-.716-1.811-.238-3.21.01-3.21.01-1.702.27-2.168.874-2.168.874-.103.101-.037.187-.037.187l.149.163s.206-.643.827-.684c0 0 .324-.01.669.196 0 0-.086.564-1.106.942-.073.032-.143.05-.143.05a2.563 2.563 0 0 1-.08.025s-.788.155-1.162.788c0 0-.093.178.026.336.01.013.02.025.033.037 0 0 .236.311.551.29 0 0 .256.073.542-.424 0 0 .384-.726.532-.913 0 0 .166-.249.55-.249 0 0 .838.02.965 1.068 0 0-.01.902-.994 1.7 0 0-.147.136-.305.24 0 0-.099.082-.04.175 0 0 .07.156.325.156 0 0 .486.07 1.061-1.127 0 0 1.447-.148 1.447-1.167 0 0 .03-.553-.25-.957 0 0 .568.047 1.07 1.019 0 0 .156.428.547.498 0 0 1.573.14 3.065 2.231h-.002c-.144-.12-2.025-1.648-3.659-1.655l-.187.007s-1.351.086-2.304 1.166c0 0-.369.444-.812.428-.503 0-.65-.653-.65-.653a.366.366 0 0 1 .057-.353l.024-.028c.074-.109.008-.195.008-.195-.037-.038-.037-.116-.037-.116l-.008-.133c0-.046.052-.046.052-.046l.17.023c.133.132.258.094.258.094.259 0 .495-.467.495-.467.25-.532-.139-.99-.247-1.101l-.026-.027c-.296-.225-.547.024-.547.024-.229.28-.288.668-.288.668-.059.234.082.428.082.428.017.056.03.13.037.178l.007.055c-.007.047-.06.055-.06.055h-.243c-.162-.062-.295-.186-.295-.186-.074-.047-.222-.04-.222-.04-.522.043-.874-.42-.935-.507-.135-.185-.283-.434-.283-.434-.207-.35.044-.606.044-.606.421-.513.938-.871.938-.871.044-.039.03-.101.03-.101-.03-.187.103-.404.103-.404 1.03-1.232 3.819-1.35 4.5-1.36zm4.48 4.064s-.197 1.7.807 2.344c0 0 .73.621 3.112 1.202 0 0-3.15-.601-5.18-.601 0 0-2.362-.083-2.618 1.825 0 0-.02 1.099 1.162.85 0 0-.828.83-1.536-.352 0 0-.453-1.182.787-2.199 0 0 .729-.746 3.269-.663 0 0-.748-.996.197-2.406zm-8.917-1.957s-.023-.101-.193-.031c0 0-.495.342-.856.762 0 0-.081.101 0 .179 0 0 .044.039.11-.039 0 0 .384-.459.85-.754 0 0 .095-.031.089-.117zm1.13-.5c-.582-.146-.69.352-.69.352.443.052.69-.352.69-.352zm3.642-.757c-.512.352-1.536.384-1.536.384-.246 0-.285-.146-.285-.146 0-.083.118-.104.118-.104.551.01 1.703-.134 1.703-.134z" fill="#000"/></g></svg>