<svg width="48" height="48" viewBox="0 0 48 48" xmlns="http://www.w3.org/2000/svg"><g fill="none" fill-rule="evenodd"><path fill-opacity=".01" fill="#FFF" d="M0 0h48v48H0z"/><path d="M24.162 4.8c5.397.006 10.816.812 14.582 2.417 1.075.458 1.68 1.096 2.015 1.85.324.728.378 1.532.362 2.375-.15 7.904-1.866 13.93-4.437 18.767-2.57 4.836-5.988 8.478-9.545 11.623-1.03.912-1.993 1.368-2.977 1.368-.984 0-1.947-.456-2.978-1.368-3.556-3.145-6.975-6.787-9.545-11.623-2.57-4.838-4.287-10.863-4.437-18.767-.015-.843.04-1.644.365-2.37.335-.75.94-1.388 2.009-1.854l.003-.001.445-.187c2.411-.973 5.465-1.628 8.742-1.964a51.515 51.515 0 0 1 3.457-.234 54.65 54.65 0 0 1 1.939-.032zm0 .985a53.8 53.8 0 0 0-1.909.032c-1.14.04-2.275.116-3.386.23-3.39.348-6.518 1.04-8.897 2.075l-.004.002-.196.09c-.69.342-1.084.771-1.303 1.26-.251.561-.293 1.233-.28 1.953.146 7.724 1.82 13.603 4.325 18.318 2.506 4.716 5.847 8.274 9.325 11.35.842.744 1.594 1.116 2.325 1.116.73 0 1.483-.372 2.325-1.116 3.477-3.076 6.819-6.634 9.324-11.35 2.505-4.715 4.18-10.594 4.325-18.318.014-.721-.027-1.396-.277-1.958-.238-.536-.686-.998-1.501-1.345-3.647-1.554-8.924-2.333-14.196-2.339zm.136 9.209l.225.008c.421.024.825.094 1.168.174.371.087.67.186.84.253.07.027.127.056.175.084.331.195.189.394.189.394-.024.04-.096.072-.19.091-.192.04-.477.028-.61-.07-.172-.127-.233-.128-.404-.126h-.084c-.239 0-.239.042-.384-.113l-.05-.05c-.103-.096-.13-.053-.147.102-.021.176.342.29.57.26a.728.728 0 0 1 .095-.009c.145 0 .175.066.228.205.035.096-.015.15-.228.181a6.633 6.633 0 0 1-.77.037 3.063 3.063 0 0 1-.398-.02c-.631-.074-1.035-.332-1.2-.488-.198-.187-.364-.25-.914.124-.093.063-.142.118-.156.166a.094.094 0 0 0 0 .055c.063.195.809.268 1.61.371.2.026.424.04.66.047.38.01.79 0 1.168-.015.392-.016.751-.039 1.015-.052a5.39 5.39 0 0 1 .355-.011c.394.01 1.65-.01 2.139 1.028.488 1.038-.021 1.568-.021 1.568a560.723 560.723 0 0 0 1.308 1.817c.364.498.353.997.291 1.547-.062.55.031.769.135 1.309.08.415.092.935.094 1.152v.104l-.582.02c.056-.144-.005-.4-.094-.704l-.082-.282c-.125-.425-.135-.716-.01-1.266.124-.55.04-.977-.27-1.537-.312-.561-1.226-1.745-1.226-1.745-.156-.052-.415.042-.685.156-.27.114-.25.228-.094.228s.322.208.322.208.156.364.26.82c.103.457 0 .613-.353.582-.354-.031-.572-.094-1.07-.79-.114-.158-.26-.347-.417-.544a45.402 45.402 0 0 0-1.192-1.418c-.177-.052-.135.208-.135.208a47.423 47.423 0 0 0 1.266 1.63l.06.086c.508.734 1.108 2.009 1.218 2.458.114.467-.032.447-.032.447-.186-.032-.353-.374-.353-.374-.114-.467-.384-.748-.384-.748s-.041.104-.073.239c-.02.093-.194.151-.375.155a.744.744 0 0 1-.237-.03c-.229-.073-.301-.052-.332.114-.032.166.135.207.135.207s.192-.066.434-.03a.92.92 0 0 1 .137.03c.3.094.27.395.27.395l-.198.01c.01-.145-.093-.124-.093-.124l-.116.003-.31.007s.02.073-.02.187c-.03.08.072.104.33.115.112.004.254.007.427.01.572.01.582.519.582.519s-.166.041.945 0c.865-.032 1.454.521 1.671.768.062.07.094.115.094.115.415-.177.893.446 1.298.82.405.374 1.443.436 1.62.239.135-.152.24-.053.249.053v.028a.14.14 0 0 1-.02.064c-.073.114-.426.56-1.164.685-.737.125-1.474-.342-1.775-.643a1.434 1.434 0 0 0-.302-.246c-.106-.06-.184-.064-.28-.076-.166-.021-.124-.198-.124-.198l-.01-.57c-.073.051-.219-.011-.655-.23-.436-.217-.862-.113-.862-.113 0 .145.395.29.53.405.096.081.06.152.032.186l-.022.021s-.093.031-.519-.062c-.426-.093-.488-.374-.488-.374l-.301-.062s0 .031-.02.156c-.022.124-.198.124-.198.124l-.312.031c-.02.146-.145.26.198.426.342.166 1.599.332 1.848.197.25-.135.53-.041-.042.416-.513.41-1.623.418-2.4-.007-.087-.048-.17-.1-.248-.16-.768-.58-.695-1.152-.581-1.526.067-.22.492-.314.829-.354.235-.028.427-.03.427-.03l-.052-.197c-.087-.056-.224-.074-.375-.07-.298.01-.653.112-.798.194a.326.326 0 0 1-.217.052c-.099-.014-.193-.078-.344-.135a.59.59 0 0 0-.42.005l-.036.016s.051.716.197.872c.11.118.385.33.603.553.07.072.135.145.186.216a.676.676 0 0 1-.01.8c-.038.043-.102.149-.176.286-.19.353-.447.911-.5 1.136-.072.311-.051.747.053.737.103-.01.27-.322.342-.509a.958.958 0 0 1 .105-.204c.088-.123.216-.202.394-.066.269.207-.237 1.045-.394 1.472-.118.324-.07.639 0 .855.023.07.049.13.072.176.093.187.124.103.197-.125.073-.228.395-.114.509.062.114.177-.042.322-.239.301-.197-.02-.083.104.052.208.077.06.227.061.424.032.146-.022.32-.06.51-.105.447-.103.51-.373.603-1.36.093-.986 1.391-1.807 1.682-1.983.29-.177.218-.571.353-1.049.135-.477.426-.207.426-.207l.051.03c.78.482.79 1.758.821 2.815.031 1.08.156 1.89.27 2.108.114.218.125.321.01.726-.114.405-.56.218-.56.218s.103-.176-.063-.28c-.166-.104-.135.02-.166.187-.03.158.082.26-.312.063l-.062-.032c-.467-.239-.29-.716-.187-.966.104-.249.156-.384.052-.519-.103-.135.031-.477.031-.8 0-.321.063-.394-.176-.685-.239-.29-.602-.913-.602-.913s-.146.041-.644.477c-.416.364-.542.972-.627 1.61l-.048.384c-.093.768-.665.82-1.194.82h-.168c-.353-.003-.738-.024-1.015-.174a.7.7 0 0 1-.27-.252c-.26-.425-.323-1.152-.323-1.152s-.041-.02-.26.073c-.217.093-.176.394-.103.747.058.283-.084.32-.212.355a.596.596 0 0 0-.09.03c-.134.062-.01.249.073.612.083.363-.228.395-.353.405-.124.01-.353.083-.768.114-.415.031-.353-.114-.29-.228.061-.114.145-.125.093-.218-.052-.094-.094-.26-.218.02-.125.28-.28.167-.28.167-.281-.53.228-.82.58-1.288.283-.374.373-.568.445-.743l.054-.13c.094-.217-.041-.155-.041-.155a.624.624 0 0 0-.39.282l-.015.03c-.302.8-.51.8-.842 1.11-.08.075-.155.182-.228.308-.231.399-.429 1-.602 1.458-.229.602-.592.602-.924.664-.333.063-.343.021-.333-.207.01-.229.052-.135-.02-.25-.073-.114-.167-.062-.167.042 0 .104-.083.104-.207.135-.125.031-.218.083-.229-.28-.01-.364.032-.665.208-.956.177-.29.872-.747 1.173-.965.302-.218.343-.364.343-.468 0-.103 0-.436.052-.54.052-.103-.042-.176-.042-.176s-.051-1.06-.093-1.35c-.042-.29.031-.28-.104-.343-.135-.062-.176.084-.176.084-.447.581-1.111 1.92-1.111 1.92.05 1.125-.403 1.39-.676 1.595l-.02.015c-.27.208-.166.156-.187.332-.02.177.031.488.02.904-.01.415-.134.363-.248.519-.115.156-.094.488-.094.675 0 .187-.083.218-.083.218-.374.156-1.163.114-1.163.114l.042-.405-.063-.208-.145-.01s-.02.218-.02.436-.157.28-.24.062c-.083-.218-.249-.26-.041-.758.207-.498.498-.643.498-.643-.02-.727.914-1.34.914-1.34-.042-.332-.125-.986.02-1.235.146-.25.291-.437.338-.753.068-.305-.023-.735-.067-1.132-.052-.452-.021-.971.155-1.22.177-.25.24-.79.229-.883-.01-.093-.145-.446-.02-1.11.07-.379.114-.555.175-.708.047-.116.103-.218.188-.383.197-.384.54-.852.726-1.142.187-.291.27-.478.198-1.018-.073-.54.062-1.152.062-1.152.23-.606 1.108-1.167 1.734-1.509.274-.15.501-.258.602-.309.333-.166.478-.27.634-.446.156-.177.218-.301.685-.623.132-.091.243-.17.35-.23.271-.153.52-.18 1.041.043l.126.053c.33.137.666.256 1.015.361.378.114.773.21 1.196.292.862.166.851-.114.654-.737-.197-.623-.883-.592-1.34-.686a3.262 3.262 0 0 0-.51-.042 22.321 22.321 0 0 0-1.015.005c-.357.008-.753.02-1.168.03-.239.007-.485.013-.733.018-.715.014-1.208-.075-1.537-.203-.379-.148-.542-.348-.581-.503-.062-.246-.183-.596.58-1.07.14-.085.307-.176.51-.27.534-.248 1.164-.305 1.761-.271zm-4.845 15.615s-.047.004-.108.034c-.13.062-.32.24-.227.74 0 0 .11.024.227-.061a.532.532 0 0 0 .17-.231c.118-.277.081-.339.062-.352l-.009-.004zm3.298-.43s-.22-.156-.43.168c-.03.047-.052.087-.068.123-.055.117-.042.178 0 .217.033.032.083.049.131.069.126.052.597-.293.367-.576zm1.187-5.882l-.077.02c-.42.168-.346.126-.461.367-.115.24-.147.45-.46.544a.853.853 0 0 1-.807-.168c-.199-.167-.45-.22-.607.126-.157.346-.157.513-.408.586-.252.074-.44-.146-.44-.146s-.126-.262-.272-.084c-.147.178-.262.272-.262.576 0 .304-.063.408-.063.408s-.565 1.414-.638 2.146c0 0-.053.492.104.597.157.105.241-.052.388-.262l.749-1.089.036-.052s-.021-.24.293-.282c.186-.025.767-.087 1.24-.03.323.039.595.133.655.333 0 0 .126.22-.346.283-.137.018-.237.02-.31.021-.176.005-.192.012-.192.272 0 .366.178.932.178.932h.015l2.27-.094.259-.011s-.105-.344-.259-.618a1.379 1.379 0 0 0-.107-.167c-.21-.272-.786-1.058-.283-1.665.15-.18.28-.316.39-.425.258-.255.396-.36.374-.559-.031-.283-.262-.45-.324-.67-.011-.039-.028-.096-.05-.164-.1-.313-.318-.843-.662-.705zm6.642 3.355c-.038-.395-.173-.338-.173-.338a.173.173 0 0 0-.076.05c-.097.097-.205.318-.319.538-.144.28.145.55.231.694.026.043.056.09.088.132.076.098.168.177.269.157.144-.03.067-.222.067-.222s-.048-.616-.087-1.011zm-4.152-.25c.056-.179.14-.153.18-.015.02.066.052.155.098.243a.856.856 0 0 0 .088.137c.154.193.328.222.27.395-.033.098-.197.1-.358.045a.592.592 0 0 1-.307-.218c-.135-.222-.019-.434.03-.588zm-4.609-4.634l.01.544s-.376.251-.198.691c0 0 0 .242.622.26l.037.002c.566.009.623-.02.628-.03v-.002l-.125-.24s-.295-.117-.54-.567a2.45 2.45 0 0 1-.235-.648l-.199-.01zm3.872-2.01c-.206-.069-.262-.054-.297.005.006.026-.1.1.058.162.157.063.105.031.084.115-.015.06-.116.072-.23.074h-.137c-.157 0-.46-.105-.46.188s.02.251.282.262c.262.01.409-.053.409-.053s.104-.073.282.189l.01.013c.178.262.476.667.702.625.23-.041.346-.376.241-.69-.105-.315-.23-.608-.67-.786a4.965 4.965 0 0 0-.274-.103zm-1.168-4.994c-.157-.029-.24-.043-.318.08-.104.167-.093.125.208.229l.11.037c.24.077.392.092.347-.162 0 0 .135-.124-.156-.156-.074-.008-.137-.019-.19-.028zm13.28-5.705l.62.188.003 4.065-.62-.17-.003-4.083zm-27.16-.072l-.002 3.317 1.273-.481-.006.675-1.913.7.005-4.051.642-.16zm24.071-.826l.725.171 1.05 2.792-.002-2.51.619.203-.005 4.086-.7-.198-1.068-2.889-.003 2.553-.61-.17-.006-4.038zm-20.865-.1l.861 3.722-.603.156-.224-.971-.36.082-.372.084-.25 1.116-.18.047-.497.128.497-2.215.45-2.008.351-.073.327-.068zm19.503-.295l.629.132-.006 4.172-.62-.132-.003-4.172zm-3.08-.498l.113.017.518.08-.002 1.81 1.109.21-.008-1.85.604.096.003 4.149-.622-.106v-1.677l-1.09-.202v1.719l-.512-.08-.11-.017-.004-4.149zm-12.188-.023v3.994l-.612.102-.006-2.088-.784 2.463-.86-2.404.005 2.24-.632.123-.002-3.958.651-.12.806 2.17.776-2.41.658-.112zm10.383-.13c.309-.002.612.1.825.334.178.195.282.464.295.796l.001.02v.064l-.62-.003c0-.11-.067-.383-.135-.458-.269-.295-.679-.069-.79.243-.104.291-.125.675-.132.989-.014.61.05 1.02.19 1.262.174.302.677.353.832.01.073-.16.1-.382.097-.633l-.464-.002.004-.623 1.09-.003c-.003.449.02 1.117-.161 1.518-.365.803-1.506.786-1.935.044a1.513 1.513 0 0 1-.104-.223c-.126-.331-.183-.78-.17-1.364.008-.362.035-.81.168-1.183.162-.452.46-.785 1.009-.788zm-8.632-.137c.276-.01.522.075.712.228.112.09.206.193.272.314a.887.887 0 0 1 .107.427c.001.194-.034.4-.107.59a1.351 1.351 0 0 1-.195.348.864.864 0 0 1 .195.215c.129.2.18.456.179.766a1.24 1.24 0 0 1-.5.976 1.033 1.033 0 0 1-.397.181 5.69 5.69 0 0 1-.266.05c-.364.058-.744.088-1.105.136l-.003-4.088.983-.133c.03-.004.06-.007.092-.009zm2.851-.135a.966.966 0 0 1 .755.323c.158.17.26.377.334.557.173.415.22 1.214.143 1.834a3.35 3.35 0 0 1-.061.346c-.073.314-.221.64-.438.877-.18.198-.419.343-.745.353h-.013a.965.965 0 0 1-.754-.323 1.841 1.841 0 0 1-.335-.558c-.172-.414-.22-1.213-.142-1.833.055-.44.193-.89.498-1.224.18-.197.42-.342.746-.352zm1.78.044l1.107.006.073.003c.293.017.622.124.837.32.228.208.35.507.352.931 0 .294-.099.588-.29.814-.098.117-.219.215-.362.283l.639 1.838-.66-.004-.516-1.487-.083-.24-.49-.002v1.719l-.614-.004.006-4.177zm-4.518 2.391l-.113.013a21.023 21.023 0 0 0-.473.06l-.007 1.163.48-.064.116-.015c.252-.033.425-.345.426-.572.001-.212-.027-.369-.099-.461-.056-.072-.16-.114-.33-.124zm2.735-1.815a.412.412 0 0 0-.3.144c-.143.157-.24.384-.287.59-.02.082-.035.178-.048.283-.067.533-.035 1.199.1 1.523.054.13.123.274.22.377.073.079.17.135.297.132a.411.411 0 0 0 .3-.144c.14-.153.24-.384.287-.59.019-.082.035-.177.048-.283.067-.532.035-1.198-.1-1.523a1.283 1.283 0 0 0-.22-.376.385.385 0 0 0-.297-.133zm-9.153 1.98l-.008.036-.22.983.22-.05.22-.05-.212-.918zm6.312-1.859c-.16.01-.317.042-.47.063l-.007 1.094.135-.018.335-.042.063-.008a.503.503 0 0 0 .15-.07.776.776 0 0 0 .257-.617.435.435 0 0 0-.152-.313.444.444 0 0 0-.311-.089zm5.243-.073l-.008 1.215.569.003h.131a.505.505 0 0 0 .294-.167.638.638 0 0 0 .143-.404c0-.162-.02-.364-.15-.482-.09-.083-.232-.13-.418-.153a2.143 2.143 0 0 0-.097-.01l-.464-.002z" fill="#000"/></g></svg>