<svg width="48" height="48" viewBox="0 0 48 48" xmlns="http://www.w3.org/2000/svg"><g fill="none" fill-rule="evenodd"><path fill-opacity=".01" fill="#FFF" d="M0 0h48v48H0z"/><path d="M24 14.77c10.195 0 18.462 4.132 18.462 9.23 0 5.098-8.267 9.23-18.462 9.23-10.196 0-18.462-4.132-18.462-9.23 0-5.098 8.266-9.23 18.462-9.23zm0 .726c-9.796 0-17.738 3.807-17.738 8.504 0 4.696 7.942 8.504 17.738 8.504S41.738 28.696 41.738 24c0-4.697-7.942-8.504-17.738-8.504zm0 .457c9.543 0 17.278 3.603 17.278 8.047 0 4.444-7.735 8.046-17.278 8.046S6.721 28.444 6.721 24c0-4.444 7.736-8.047 17.28-8.047zm-1.43 7.986c-1.483 0-2.45 1.12-2.7 2.512-.229 1.28.498 2.302 1.695 2.302 1.677 0 2.675-1.638 2.675-2.813 0-1.232-.509-2-1.67-2zm10.003.134h-3.021s.108.095-.031.481c-.14.386-1.364 3.671-1.364 3.671s-.217.432-.278.432h3.114l.372-1.095s-.047.062-.341.062h-1.317l.279-.74h1.022s.217-.016.264.046l.415-1.167-.006.013c-.022.03-.092.089-.301.089h-.992l.295-.817h1.255s.17-.024.232.107l.403-1.082zm-6.366-.001l-1.569.002s.115.062.115.355v3.965s-.016.217-.098.263h1.246s0-.094.124-.247c.124-.155 2.711-3.61 2.711-3.61s.59-.726.745-.726h-1.783s.14.093.031.262c-.108.17-1.693 2.53-1.693 2.53l.02-2.38s-.003-.382.15-.414zm8.904.002h-1.996c.14.155.031.478.031.478s-1.243 3.41-1.336 3.672c-.093.263-.271.43-.271.43l1.584.003c-.116.002-.035-.281-.035-.281l.487-1.309.7 1.42c.048.092.024.17.024.17h1.682c-.154 0-.325-.294-.325-.294l-.809-1.445c1.132 0 1.472-1.076 1.472-1.076.515-1.61-.838-1.757-1.208-1.768zm-16.848-.017h-1.947c.14.155.03.478.03.478l-1.285 3.66c-.093.262-.263.445-.263.445h1.518c-.047 0-.047-.15-.047-.15l.545-1.44s.68 1.327.726 1.42c.046.092.023.17.023.17h1.624c-.155 0-.315-.294-.315-.294l-.808-1.445c1.13 0 1.493-1.116 1.493-1.116.52-1.652-1.072-1.726-1.294-1.728zm4.02.954l.077.003c.122.015.793.027.429 1.476-.24.958-.7 1.257-1.118 1.18-.57-.105-.47-.983-.38-1.388.202-.888.698-1.313 1.069-1.268zm-7.421-.465l-3.367 1.1-.372 1.098h2.963l.36-1.027H12.53l2.188-.755.145-.416zm19.833.593c.104.006.456.06.28.509-.175.443-.744.4-.744.4h-.295l.31-.91zm-16.907-.03c.692 0 .444.52.444.52-.212.453-.785.403-.785.403h-.294l.315-.921s.168-.003.32-.003zm11.219-6.628h-1.545s.116.186-.035.614c-.151.428-1.336 3.61-1.336 3.61s-.094.3-.221.357l1.86-.002h.052c.344-.005 2.264-.13 2.899-2.276 0 0 .883-2.326-1.674-2.303zm-8.122-.006H19.41s.103.128-.095.417l-2.718 4.011s-.05.096-.177.15h1.49s-.004-.113.034-.187c.071-.134.256-.456.256-.456h1.5l.003.402s.008.139-.103.246h1.488s-.11-.062-.131-.244l-.186-4.027s-.009-.258.114-.312zm-4.46-.003h-1.656c.206.098.023.486.023.486s-1.335 3.703-1.428 3.888c-.093.185-.163.208-.163.208h2.887l.404-1.096c-.035.104-.312.078-.312.078h-1.208s1.12-2.97 1.21-3.194c.127-.318.213-.364.243-.37zm7.864.008h-1.406s.073.116.026.243l-1.49 4.073s-.093.254-.175.254h1.36s-.093-.138-.035-.288c.08-.209.802-2.164.802-2.164l.314 2.452h1.232l1.615-4.361s.066-.205.156-.205l-1.31-.004s.038.15-.008.267c-.046.115-.79 2.094-.79 2.094l-.29-2.36zm10.784 1.752H32.11l-.36 1.028h1.917l-2.187.755-.145.416 3.366-1.1.372-1.099zm-6.145-.767c.112.001.84.063.242 1.516-.394.954-.98 1.024-1.296 1.024l-.209.001h-.006l.906-2.54zm-9.256.569l.011 1.342h-.84l.829-1.342z" fill="#1A171B"/></g></svg>