<svg width="48" height="48" viewBox="0 0 48 48" xmlns="http://www.w3.org/2000/svg"><g fill="none" fill-rule="evenodd"><path fill-opacity=".01" fill="#FFF" d="M0 0h48v48H0z"/><path d="M30.293 23.264c-.025-5.574-.354-11.866-1.275-17.657 0 0-1.913-.217-4.398-.252-.173-2.269-.31-3.509-.31-3.509h-.617s-.14 1.24-.312 3.51c-2.486.034-4.398.251-4.398.251-.922 5.79-1.25 12.083-1.276 17.657-2.046.225-3.676.45-3.676.45v.573s1.63.223 3.676.451c.026 5.574.354 11.865 1.276 17.654 0 0 1.912.221 4.398.256.172 2.266.312 3.506.312 3.506h.617s.137-1.24.31-3.506c2.485-.035 4.398-.256 4.398-.256.92-5.79 1.25-12.08 1.275-17.654 2.047-.228 3.676-.451 3.676-.451v-.574s-1.63-.224-3.676-.45zm-2.65-15.947c.807 5.427 1.012 12.237 1.036 15.778a69.406 69.406 0 0 0-3.408-.264 256.498 256.498 0 0 0-.514-15.514h2.887zm-7.286 0h2.887a257.652 257.652 0 0 0-.513 15.514c-1.04.049-2.24.148-3.408.264.024-3.54.226-10.35 1.034-15.778zm0 33.366c-.808-5.426-1.01-12.235-1.034-15.777a71.32 71.32 0 0 0 3.408.265c.026 6.552.277 11.867.513 15.512h-2.887 7.287-2.887c.238-3.645.488-8.96.514-15.512 1.04-.05 2.238-.15 3.408-.265-.024 3.542-.229 10.351-1.035 15.777h-7.287z" fill="#000"/></g></svg>