<svg width="48" height="48" viewBox="0 0 48 48" xmlns="http://www.w3.org/2000/svg"><g fill="none" fill-rule="evenodd"><path fill-opacity=".01" fill="#FFF" d="M0 0h48v48H0z"/><path d="M24 10c3.74 0 7.255 1.456 9.9 4.1A13.907 13.907 0 0 1 38 24c0 3.74-1.456 7.255-4.1 9.9A13.909 13.909 0 0 1 24 38c-3.74 0-7.255-1.457-9.9-4.1A13.908 13.908 0 0 1 10 24c0-3.74 1.456-7.255 4.1-9.9A13.908 13.908 0 0 1 24 10zm-.073 3.01c-1.695 0-2.923.877-3.507 1.462l-7.658 8.242c-1.367 1.65-1.618 3.589.059 5.378 2.01 2.147 7.774 3.332 11.106 3.332s9.114-1.168 11.107-3.332c1.865-2.025 1.096-3.964.058-5.378l-7.658-8.242c-.584-.585-1.812-1.462-3.507-1.462zm0 .856c1.538 0 2.651.795 3.181 1.326l6.946 7.476c1.326 1.325 1.767 3.297-.053 4.878-2.015 1.75-7.052 3.022-10.074 3.022-3.022 0-8.059-1.273-10.074-3.022-1.82-1.58-1.379-3.553-.053-4.878l6.946-7.476c.53-.53 1.644-1.326 3.181-1.326zm1.405 11.042c-.291.04-1.193.08-1.537.08-.345 0-1.247-.04-1.538-.08l-.239.53c-.092.199.16.292.265.186.107-.106.69-.398.968-.173v2.532c0 .172-.166.318-.285.318-.12 0-.219.08-.219.173 0 .092.054.159.252.172.398.026 1.326.026 1.59 0 .2 0 .253-.08.253-.172 0-.093-.1-.173-.219-.173-.12 0-.285-.146-.285-.318v-2.532c.278-.225.862.067.968.173.106.106.358.013.265-.186zm4.11-.676c.066-.093.052-.411-.252-.305-.186.066-.504.159-.624.199-.119.04-.225.291-.013.331.212.04.279.053.332.252l.464 1.59c.119.425.08.902-.504 1.114-.583.212-1.047-.172-1.127-.437l-.464-1.578c-.053-.225-.033-.37.1-.45.132-.08.159-.425-.106-.372-.265.054-1.174.292-1.32.279-.172.04-.191.179-.165.245.027.066.113.106.232.12.12.013.199.099.225.218l.57 1.949c.106.384.822 1.1 2.2.583 1.38-.517.929-1.564.862-1.763l-.464-1.59c-.066-.226-.013-.292.053-.385zm-9.173.185c-.69-.37-1.989-.464-2.625.69-.664 1.204-.212 2.174.955 2.73 1.52.726 2.372-.331 2.584-.808.342-.77.517-1.843-.914-2.612zm-1.724 1.14c.398-.742.915-.98 1.472-.729.49.305.676.835.172 1.763-.503.928-1.06.955-1.511.716-.442-.234-.53-1.007-.133-1.75zm-2.511-3.254c-.093-.112-.2-.106-.266-.026s-.026.172.053.265c.08.093.146.298.034.424l-1.478 1.922c-.1.113-.292.12-.424.02-.133-.1-.372.073-.173.219.2.145 1.883 1.378 2.466 1.637l.61-.564c.086-.086-.006-.285-.153-.185-.477.324-1.253.159-1.511-.57l1.438-1.876c.06-.08.218-.251.437-.159.126.053.18.007.213-.046s.028-.17-.053-.212a16.85 16.85 0 0 1-1.193-.849zm16.337.285c-.172.093-.438.12-.663.172-.225.054-.663.186-.941.358-.279.173-.981.835-.57 1.644.225.398.729.65 1.816.318.384-.12 1.007-.305 1.127-.04.119.266-.173.677-.623.862-.451.185-1.1.146-1.379 0-.132-.08-.318.013-.212.172l.398.53c.477-.013 1.246-.159 1.67-.41.424-.252 1.272-.955.875-1.816-.398-.862-1.22-.597-1.392-.544-.173.053-1.551.504-1.657.186-.106-.318.265-.676.61-.769.344-.093.954-.106 1.153-.053.199.053.278-.08.172-.225l-.344-.372zm-8.775-6.959c-.875 0-3.791.769-3.805 3.698-.002.513.061.979.177 1.398l-.481.736c-.319.504-.756.517-.955.517-.199 0-.252.265-.04.279h1.525c.208 0 .172-.272.04-.318-.101-.036-.2-.153-.1-.305l.216-.33c.762 1.734 2.546 2.504 4.231 2.424 1.405-.053 2.572-.61 3.235-1.378.265-.292-.027-.584-.372-.292-.344.292-1.325 1.034-2.65 1.034-1.207 0-3.337-.33-3.709-2.911l.385-.589h.627a1.897 1.897 0 0 0-.004.116c-.003 1.001.598 1.614 1.335 1.816v.083c0 .279-.185.345-.345.358-.159.013-.172.292.054.292h2.412c.782 0 1.617-.438 1.604-1.419-.013-.98-.742-1.285-1.14-1.47.212-.067.716-.266.716-.916 0-.649-.676-1.073-1.246-1.073h-3.367c-.172 0-.179.073-.179.14 0 .079.066.098.093.138.026.04.033.14-.047.259l-.954 1.458v-.02c0-3.195 2.784-3.208 3.181-3.234.398-.027 1.843.145 2.943.795.318.238.318-.027.265-.106a7.343 7.343 0 0 0-.53-.901c-.133-.186-.398-.213-.477-.107-.08.107-.186.24-.478.133-.291-.106-1.14-.305-2.16-.305zm1.073 3.964c.411 0 1.392.185 1.392 1.166 0 .98-.967 1.18-1.339 1.166-.37-.013-.689-.026-.689-.384v-1.948zm-1.418 0v1.377c-.355-.168-.76-.523-.765-1.236 0-.05 0-.096.003-.142h.762zm1.756-1.818a.684.684 0 1 1 0 1.368l-.974-.001v-1.367zm-1.756.607v.76h-.688c.135-.434.42-.65.688-.76zm-.199-.606c.2 0 .2.2.2.305v.022c-.427.114-1.013.412-1.24 1.039h-.424l.894-1.366z" fill="#000"/></g></svg>