<svg width="48" height="48" viewBox="0 0 48 48" xmlns="http://www.w3.org/2000/svg"><g fill="none" fill-rule="evenodd"><path fill-opacity=".01" fill="#FFF" d="M0 0h48v48H0z"/><path d="M21.242 36.222h5.508v-1.358h-5.508v1.358zm.67 3.35h4.168v-2.819h-4.167v2.819zm-6.1-10.336h16.372v-.682H15.812v.682zm-.873 1.287h18.114v-.681H14.94v.68zm-.023-2.554H33.03v-.68H14.916v.68zm11.939 4.02c-.908.827-.902 2.317-.902 2.317h-3.907s.006-1.49-.901-2.317c-.636-.58-1.41-.702-1.41-.702-.508-.101-.508-.158-.508-.194h9.536s0 .093-.505.195c0 0-.77.122-1.403.7zm-10.966-.895h1.965c0 1.165-.753 1.686-1.965 1.426v-1.426zm6.968-18.778c.783-1.548.934-3.878 1.13-3.916.198.038.348 2.367 1.132 3.915.74 1.46 2.327 2.699 2.237 2.843-.114.182-.993-.272-1.435-.478-.708-.333-1.283-.59-1.283-.59s-.283 3.712.62 7.124c.74 2.797 2.51 5.347 2.67 5.569H25.67l-.206-.353c-.614-1.078-1.052-2.018-1.478-3.629-.427 1.61-.86 2.552-1.474 3.63l-.207.352h-2.257c.16-.222 1.93-2.771 2.67-5.569.903-3.411.62-7.124.62-7.124s-.575.258-1.283.59c-.443.207-1.322.66-1.435.48-.09-.146 1.497-1.384 2.237-2.844zM15.81 26.78c-.009-.275-.15-4.025-1.03-6.974-.965-3.234-2.904-5.154-2.774-5.35.12-.18 1.724.148 2.926.976 1.284.883 2.543 2.341 2.45 2.45-.056.067-.49-.293-1.271-.585-.83-.31-1.194-.252-1.194-.252s1.378 2.28 2.061 4.754c.572 2.069.87 4.749.886 4.981H15.81zm16.38 0c.009-.275.15-4.025 1.03-6.974.965-3.234 2.904-5.154 2.774-5.35-.12-.18-1.724.148-2.926.976-1.284.883-2.544 2.341-2.45 2.45.056.067.49-.293 1.27-.585.831-.31 1.195-.252 1.195-.252s-1.378 2.28-2.061 4.754c-.573 2.069-.87 4.749-.886 4.981h2.054zm-.079 4.313h-1.965c0 1.165.753 1.686 1.965 1.426v-1.426z" fill="#000"/></g></svg>