<svg width="48" height="48" viewBox="0 0 48 48" xmlns="http://www.w3.org/2000/svg"><g fill="none" fill-rule="evenodd"><path fill-opacity=".01" fill="#FFF" d="M0 0h48v48H0z"/><path d="M23.962 14.4a9.724 9.724 0 0 1 8.217 4.517h13.975l-1.415 1.416H32.927c.217.511.388 1.045.516 1.596h9.704l-1.414 1.417h-8.07c.021.26.035.523.035.789 0 .272-.014.54-.036.806h6.479l-1.414 1.417h-5.288a9.625 9.625 0 0 1-.52 1.596h4.216L35.72 29.37h-3.553a9.725 9.725 0 0 1-8.206 4.5 9.724 9.724 0 0 1-8.205-4.5H12.28l-1.414-1.417h4.14a9.666 9.666 0 0 1-.52-1.596H9.273L7.86 24.941h6.404a9.98 9.98 0 0 1-.036-.806c0-.266.014-.528.035-.789H6.267L4.853 21.93h9.628c.128-.55.3-1.085.517-1.596H3.26l-1.414-1.416h13.9a9.725 9.725 0 0 1 8.216-4.517zM24 15.839a8.312 8.312 0 1 0 0 16.624 8.312 8.312 0 1 0 0-16.624zm2.106 6.107l1.757 3.212.01-3.212h.869v4.385l-1.045.026-1.757-3.1v3.074h-.867v-4.385h1.033zm-7.509 0l1.13 3.414 1.118-3.414h1.283v4.385h-.934V23.08l-.989 3.252h-.968l-.985-3.252v3.252h-.934v-4.385h1.28zm5.438-.003v4.385h-.889v-4.385h.89zm6.609 0v4.385h-.89v-4.385h.89z" fill="#000"/></g></svg>