<svg width="48" height="48" viewBox="0 0 48 48" xmlns="http://www.w3.org/2000/svg"><g fill="none" fill-rule="evenodd"><path fill-opacity=".01" fill="#FFF" d="M0 0h48v48H0z"/><path d="M28.57 36.31a.821.821 0 0 1-1.107-.778l.016-1.727c0-1.658 1.619-2.557 2.882-5.971.878-2.373 1.615-4.253 4.125-3.926.671.088 1.34.185 2.007.29a.715.715 0 0 1 .6.758c-.377 5.225-3.811 9.603-8.523 11.353M24 17.946c-6.084 0-7.321 1.676-10.094 2.315-.486.113-.97.233-1.45.361a.714.714 0 0 1-.863-.92c1.78-5.139 6.662-8.83 12.407-8.83s10.627 3.691 12.407 8.83a.714.714 0 0 1-.863.92c-.48-.128-.964-.248-1.45-.36-2.773-.64-3.985-2.316-10.094-2.316M19.43 36.31c-4.712-1.75-8.146-6.128-8.522-11.353a.715.715 0 0 1 .6-.759 77.33 77.33 0 0 1 2.007-.289c2.509-.327 3.246 1.553 4.124 3.926 1.263 3.414 2.882 4.313 2.882 5.971l.016 1.727a.821.821 0 0 1-1.107.777M24 8C15.163 8 8 15.163 8 24c0 8.822 7.178 16 16 16 8.837 0 16-7.163 16-16 0-8.822-7.178-16-16-16" fill="#000"/></g></svg>