<svg width="48" height="48" viewBox="0 0 48 48" xmlns="http://www.w3.org/2000/svg"><g fill="none" fill-rule="evenodd"><path fill-opacity=".01" fill="#FFF" d="M0 0h48v48H0z"/><path d="M23.843 7.385l.547.003c4.145.043 7.24.592 12.22 1.729l-1.412 18.604c-.256 5.324-5.26 9.75-11.354 12.894l-.345-.179c-5.937-3.131-10.759-7.491-11.01-12.715L11.077 9.117c5.196-1.187 8.34-1.732 12.766-1.732zM34.85 25.476l-6.194.02v.621c0 1.044-.604 2.528-1.857 3.492l-.072.149c-.137.3-.146.455-.102.958.128-.077.386-.167.552-.231.038-.295.83-1.69 1.908-1.726.103 0 .077.077 0 .129-.076.05-.934.565-1.052 1.32.128-.037.908-.166.972-.178.052-.193.497-.937 1.216-1.001.09 0-.029.137.013.102-.287.241-.48.482-.552.812.128-.013.568.019.658.045.09-.116.553-.407 1.202-.32.09 0 .066.085 0 .114-.087.04-.56.09-.625.36.97.53 1.097 1.148 1.161 1.558.013.103-.05.103-.128.04-.077-.065-.8-1.064-1.796-1.117-.881-.047-2.87.481-4.177 1.174-.012.398-.112.45-.308.45a.351.351 0 0 1-.265-.12c-.06.046-.112.036-.193.036-.196 0-.322-.158-.322-.353 0-.147.056-.251.183-.304a.29.29 0 0 1-.013-.088.354.354 0 0 1 .535-.304c.043.022.287.003.313-.196.009-.096 0-.281.15-.722l.015-.13a4.83 4.83 0 0 1-1.97.504v9.307c4.49-2.373 9.75-6.319 10.52-11.387l.228-3.014zM23.587 35.672l-6.128.014c1.87 1.692 4.079 3.1 6.128 4.184v-4.198zm4.82-3.743c.083 0 .063.062 0 .103-.06.04-.811.436-.905 1.04.103-.03.614-.132.665-.143.042-.154.584-.83 1.214-.816.071 0-.023.11.01.081-.23.194-.656.434-.714.698.103-.01.454.015.526.036.072-.092.475-.357.995-.289.071 0 .053.069 0 .093-.071.03-.402.136-.453.351.561.332.782.678.833 1.007.01.082-.041.082-.103.03-.061-.051-.656-.625-1.453-.668-.704-.037-2.23.337-3.277.891-.01.318-.09.36-.246.36a.283.283 0 0 1-.213-.096c-.047.037-.09.03-.154.03-.156 0-.257-.127-.257-.284 0-.117.045-.2.146-.243a.243.243 0 0 1-.01-.07.283.283 0 0 1 .428-.243c.034.018.23.002.25-.157.015-.169.366-1.44 1.238-1.564.078-.017.07.03.04.07l-.017.02c-.03.015-.747.63-.686 1.312.103-.061.404-.165.537-.217.031-.235.744-1.303 1.607-1.332zm-8.542-3.4l-6.792.007c.196 1.247.664 2.425 1.325 3.529l9.189-.001V30.57c-1.758-.08-2.988-.98-3.722-2.042zm8.276-10.046h-8.596v7.313c0 1.988 1.668 4.266 4.298 4.266s4.298-2.277 4.298-4.266v-7.313zm-5.308 2.342c.096-.057.16 0 .144.055-.016.057-.016.145.04.177s.105.112.105.136c0 .024-.025.065.04.12.064.057.136-.031.08-.087-.056-.057-.056-.153.048-.217.105-.064.232-.016.313.072.08.088.392-.032.473-.032.08 0 .072.08.04.104-.032.024-.048.073.008.129.056.056.24-.024.4-.033.161-.008.137.113.05.137-.21.08-.201.152-.161.28.04.129.152.105.352.097.201-.008.16.128.073.16-.088.032-.177.145-.177.209s.2.112.337.152c.136.04.144.137.065.176-.08.04-.09.08-.08.145.007.064 0 .144-.121.152-.12.008-.209.113-.217.16-.008.049.064.097.193.145.128.048.08.2.008.216-.072.016-.137-.04-.2.112-.065.153-.137.17-.21.17-.071 0-.135.015-.176.095a.282.282 0 0 1-.16.145c-.102.05-.225.136-.024.304.2.169 1.042.377 1.298.361.258-.016.65.104.77.185.121.08.265.248.426.087.16-.16-.056-.368-.2-.528-.298-.257-.234-.498-.217-.61.016-.112-.065-.272-.048-.361a.39.39 0 0 1 .192-.256c.112-.064.137-.137.184-.201.153-.257.33-.216.562-.257.232-.04.208-.04.297-.256.088-.217.216-.224.248-.176.032.047 0 .176-.032.24.024.056.048.128-.016.273-.064.144-.48.28-.561.304-.08.024-.016.113.04.073.36-.265.433.024.44.112.233-.008.225.16.2.296.073.217-.087.386-.167.458-.08.072.04.168.152.184a.446.446 0 0 0 .064.353c.065.096-.016.304-.128.4.032.049.048.274 0 .386-.048.112-.449.128-.625.048-.177-.08-.257-.112-.393-.072.048.12.096.28.016.625s-.345.482-.393.706c-.049.225.2.57.272.697.073.129.105.257-.048.345-.152.089-.345.385-.409.538-.064.152-.36.392-.529.464-.169.073-.112.129-.12.25-.008.12-.193.208-.273.208-.08 0-.128.088-.144-.089a.64.64 0 0 1 .129-.44c.087-.129.248-.217.432-.361.185-.145.233-.305.273-.402.04-.096.152-.184.208-.28-.032-.048-.04-.088-.072-.16-.192-.265-.602-.353-.73-.385-.087.096-.08.28-.064.353.017.072 0 .216-.144.24-.144.024-.513.145-.697.369-.185.225-.458.24-.546.265-.088.024-.072.16-.088.224s-.08.177-.313.177c-.233 0-.089-.24-.024-.377.064-.137.128-.137.233-.241.104-.104.192-.144.416-.208.225-.064.497-.345.602-.425.176-.16.136-.465.032-.562-.128-.104-.329-.473-.425-.641-.53.056-1.435-.281-1.588-.393-.224.248-.962.048-1.122-.008-.2-.04-.289.032-.32.152a.524.524 0 0 0 .055.377c.064.12.104.24.088.385-.016.144.136.273.193.28.16.017.112.177.096.337-.017.161-.208.08-.289.008l-.2-.28a.606.606 0 0 1-.193-.577c.024-.12.008-.281-.056-.658s.056-.401.208-.433c.153-.032.442-.137.562-.2-.305-.129-.457-.554-.545-.746-.089-.193-.257-.12-.305-.072a2.433 2.433 0 0 0-.233.256c-.048.072-.024.128-.04.2-.016.072-.144.217-.184.337-.008.088-.016.337-.049.418-.031.08-.184.152-.312.096-.128-.057 0-.353.008-.402.048-.176.136-.224.136-.336 0-.32.113-.257.185-.425.072-.168.36-.562.417-.626.112-.16.288-.08.369-.016.12.096.337.185.529.257.04-.048.088-.088.128-.281l.03-.116c.044-.155.112-.302.195-.373.104-.088.329-.385.425-.481.048-.088.152-.169.04-.305-.112-.136-.217-.008-.36.112-.145.12-.242.033-.234-.007.009-.04.009-.057-.04-.129-.048-.072-.12.016-.209-.112-.03-.044-.023-.137.049-.216.072-.088.112-.145.168-.201.057-.056.29-.184.426-.32.047-.033.136-.033.152-.065.016-.032-.024-.12-.016-.2.008-.08.272-.145.377-.153-.049-.144.04-.24.136-.296zm.754-9.17c-2.543.036-6 .175-11.681 1.663L12.799 25l6.233-.001v-2.163c-.175-.138-.444-.36-1.245-.359-.474 0-1.818.449-2.6 1.407-.012.335-.204.46-.368.46-.09 0-.17-.038-.224-.1a.298.298 0 0 1-.475-.24c0-.125.088-.24.194-.285a.243.243 0 0 1-.01-.074.299.299 0 0 1 .45-.256c.037.018.157.1.178-.068.017-.179-.006-1.855.89-2.108.098-.022.065.053.022.097-.043.043-.44.727-.387 1.591.109-.065.344-.24.484-.295.044-.184.353-1.579 1.095-1.594.086 0 .065.065 0 .109-.065.043-.388.425-.453 1.107.108-.033.378-.079.433-.09.043-.162.362-1.097.969-1.15.076 0 .043.078.01.11-.032.033-.353.478-.417.914.108-.011.36-.003.435.018.065-.083.579-.647 1.019-.832l.001-1.9c-.084-.076-.216-.158-.62-.159-.632-.002-1.69.26-3.147 1.212-.014.448-.27.615-.49.615a.4.4 0 0 1-.3-.135.398.398 0 0 1-.633-.32.43.43 0 0 1 .26-.38.325.325 0 0 1-.014-.097.398.398 0 0 1 .601-.342c.05.025.252.111.28-.113.022-.238.387-2.232 1.614-2.405.13-.028.087.072.03.13-.058.058-1.014.842-.944 1.994.145-.087.586-.3.774-.372.057-.246.6-1.742 1.587-1.761.116 0 .086.086 0 .144-.086.058-.688.481-.774 1.39.144-.043.59-.147.662-.161.058-.217.44-1.079 1.25-1.15.1 0 .057.104.014.147-.043.043-.471.339-.557.919.083-.008.257.023.408.054l-.002-.538h4.555zm11.559 9.774l-6.491.019-.012 3.532 6.225.019.278-3.57zm-13.252-2.335v.717c0 .19.053.263.186.263.14 0 .192-.07.192-.263v-.717h.197v.722c0 .266-.078.47-.386.47-.306 0-.387-.2-.387-.47v-.722h.198zm2.76-.023c.23 0 .385.146.413.395h-.202c-.038-.127-.103-.183-.21-.183-.165 0-.268.153-.268.397 0 .238.106.394.268.394.124 0 .205-.087.23-.244h-.216v-.2h.398v.633h-.136l-.02-.148c-.075.117-.166.17-.287.17-.258 0-.44-.246-.44-.596 0-.372.186-.618.47-.618zm-4.337 0c.233 0 .366.134.376.377H20.5c-.02-.128-.072-.18-.18-.18-.096 0-.165.056-.165.134 0 .037.024.067.068.088l.3.14c.137.062.197.136.197.293 0 .11-.042.209-.12.28-.066.059-.14.082-.255.082-.16 0-.275-.056-.34-.168a.416.416 0 0 1-.057-.22h.19c.024.137.086.193.213.193.106 0 .18-.056.18-.136 0-.044-.024-.073-.085-.102l-.294-.136c-.128-.059-.186-.147-.186-.29 0-.213.14-.355.351-.355zm6.843.277l.009.083c0 .134-.043.203-.174.271.118.05.133.082.142.308.01.19.015.218.054.253h-.278a.41.41 0 0 1-.031-.184c-.006-.172.025-.278-.209-.278h-.23v.462h-.252v-1.17h.538c.174 0 .24.015.313.068l.027.023-.001-.09h.772v.212h-.285v.957h-.196v-.957l-.211-.002c.014.038.02.08.02.127zm-3.815-.254v.212h-.284v.957h-.197v-.957h-.29v-.212h.77zm2.458 0l.375 1.169h-.238l-.073-.245h-.386l-.074.245h-.23l.379-1.169h.247zm-1.592 0v.212h-.284v.957h-.197v-.957h-.29v-.212h.77zm-2.651 0v.212h-.284v.957h-.197v-.957h-.29v-.212h.77zm5.121.212h-.239v.298h.24c.171 0 .227-.037.227-.15 0-.115-.053-.148-.228-.148zm-2.58-5.042v3.591h4.554v.156h6.751l.279-3.681-11.585-.066zm-5.871-1.17c.129 0 .096.097 0 .16a2.419 2.419 0 0 0-.914 1.652c.16-.048.673-.128.754-.144.064-.24.561-1.41 1.46-1.492.111 0 .063.081.015.13-.048.047-.69.593-.69 1.234.16-.016.61-.016.722.016.112-.145.594-.674 1.283-.722.113 0 .064.08 0 .144-.064.065-.48.433-.561.77.24.129.93.594 1.01 1.107.016.128-.064.128-.16.048s-.834-.674-1.764-.674-2.679.45-4.299 1.508c-.015.497-.3.683-.545.683a.442.442 0 0 1-.332-.15.443.443 0 0 1-.704-.357.48.48 0 0 1 .29-.42.376.376 0 0 1-.017-.109.442.442 0 0 1 .669-.38c.054.027.279.124.31-.125.025-.264.378-2.622 1.741-2.815.144-.032.096.08.032.145-.064.064-1.123.914-.994 2.357.16-.096.721-.369.93-.449.048-.369.577-2.085 1.764-2.116zm5.613-5.196c-5.26 0-10.008 1.123-12.22 1.668l.236 3.182c5.665-1.418 9.033-1.643 11.984-1.643 2.952 0 6.32.225 11.984 1.643l.237-3.182c-2.213-.545-6.96-1.668-12.22-1.668zM14.39 9.47c.289-.064.698-.024.714.489.016.513-.08.73-.441.81l-1.917.433.072.882-.553.128-.16-2.229zm18.508-.185l2.55.537-.032.458-2.013-.425-.016.417 1.997.425-.033.456-1.997-.424-.024.457 1.99.425-.04.457-2.51-.537.128-2.246zm-3.409-.577l.53.08-.049.834 1.861.353.056-.882.522.096-.137 2.27-.529-.097.064-.93-1.86-.353-.064.979-.53-.073.136-2.277zm-11.627.104c.225-.04.73.113.73.53l.024 1.074c.008.224-.008.521-.61.61l-1.715.272c-.306.056-.802.008-.819-.57l-.023-1.01c0-.208-.009-.513.56-.601zm8.18.297c.032-.658.417-.642.617-.626l2.35.185-.025.497-2.004-.16c-.305-.024-.37.152-.377.344l-.016.481c-.016.337.184.394.369.402l1.956.144-.024.497-2.341-.176c-.425-.033-.562-.41-.553-.634l.047-.954zm-4.816-.624c.421-.034.791.052.79.629 0 .165-.059.332-.148.482.115.09.224.33.222.68v.37l-.555.027v-.326c0-.324-.178-.527-.479-.506l-1.531.1.015.885-.552.026-.06-2.214zm-3.443.854l-.065.002-1.42.241c-.296.056-.289.216-.289.385l.017.601c.016.25.144.24.337.209l1.403-.225c.233-.04.28-.208.28-.313l-.016-.657c0-.152-.16-.265-.312-.24zm-3.473.669l-.072.007c-.16.032-1.54.345-1.54.345l.016.329 1.596-.353c.136-.032.16-.144.152-.217-.006-.056-.064-.136-.224-.104zm11.218-1.573v.481h-2.26a.193.193 0 1 0 0 .385h1.824c.165.005.52.06.52.662 0 .694-.42.67-.58.67h-2.519v-.481h2.261c.107 0 .193-.07.193-.177a.193.193 0 0 0-.193-.193h-1.798c-.133-.005-.527-.058-.531-.665-.004-.653.429-.682.557-.682h2.526zm-4.362.575l-1.663.087.006.351 1.642-.091c.114-.01.208-.063.202-.181-.006-.117-.059-.164-.187-.166z" fill="#1A171B"/></g></svg>