<svg width="48" height="48" viewBox="0 0 48 48" xmlns="http://www.w3.org/2000/svg"><g fill="none" fill-rule="evenodd"><path fill-opacity=".01" fill="#FFF" d="M0 0h48v48H0z"/><path d="M29.461 16.064c.067 0 .134.134.2.267-.866.466-1.666 1.2-2.333 2.133.067.2.334.4.533.533 1.667-2.133 3.4-2.533 4.533-2.466-1.667 3.332-4.932 4.532-7.598 4.865 2.266.867 3.799 2.133 2.332 4.599-.533-1.2-1.266-1.933-2.665-2.666.933 2.866.2 4.465-.734 5.332-.066-.6-.266-1.933-.666-2.933-.467.533-.867 1.067-1.333 1.466-.066.333 0 .8.067 1.067.333-.267.666-.533.866-.734.2.867.333 1.734.267 2.733 2.599-1.266 2.932-3.599 2.799-4.865.666.733.933 1.6 1.133 2.599 1.866-2.332 2.466-4.665.466-6.198 2.267-.8 3.4-1.6 4.6-3 1.332 1.4 1.732 3.133 1.665 4.6-.8-.267-1.6-.533-2.999-.533.867.866 2.133 2.532 2.133 4.865 0 .666-.133 1.266-.333 1.932-.733-.866-1.667-1.332-2.733-1.666.467 1 .933 2.333.933 3.8 0 1.332-.4 2.332-1.133 3.065-.533-1.2-1.666-2.666-2.932-3.466.2 2.4.133 5.332-.467 6.332-1 1.333-2.266 1.999-3.732 2.533.266-1.467.533-5.199.067-8.665-.8.8-2.067 2.333-2.6 4.799-.466-.534-1.133-1.4-1.133-2.933 0-1.466.8-2.932 2.2-4.398-1.2 0-2.333.2-3.4 1 .267-1.867 1.267-3.067 2.466-4-1.132.267-1.666.334-2.266.334-.733 0-1.666-.2-1.999-1.133.4.133.866.266 1.466.266 1.2 0 2.6-.533 4.132-2.466.2-.2.2-.4.2-.533 0-.733-1.533-1.266-2.399-1.533-.2 0-.8-.133-1.266-.8-.467-.533-1.067-.733-1.933-.733-.6 0-1.333.134-2.2.4.267-1 .933-2.8 2.533-2.8.666 0 1.533.334 2.466.867-.133.8.2 2.266 2.066 2.266.733 0 1.8-.333 2.133-1.866.133.067.266.067.4.134.133-.134.266-.334.333-.6-.6-.4-1.6-.467-2.266-.467h-1.066c-.334 0-.667 0-.867-.066.134-.667.467-1.267.8-1.267zM9.6 20.596c.6.533 1.533 1.533 2.932 1.533 1.467 0 2.533-.533 3.533-.533.733 0 2 .4 2.6 1.666-.334-.266-1-.6-2.134-.6-.799 0-2.199.8-3.399.8-1.866 0-2.932-1.533-3.532-2.866zm12.53-2.4c-.2 1.067-.933 1.2-1.4 1.2-.666 0-1.333-.266-1.333-1.2.134.068.267.068.4.068.067.266.334.6.867.6.6 0 .933-.4.933-.667zM32.994 7.6l-3.2 7.664H20.13c-.133 0-.266 0-.4.067L16.398 7.6c1.4 0 2.8.6 2.8 1.733 0 .333-.134.733-.4 1.133 0 .066 0 .066.066.066.267-.266.6-.466 1-.466.733 0 1.266.6 1.266 1.333 0 .667-.533 1.266-1.266 1.266h-.267c.067.267 1 .8 2.067.8.8 0 1.732-.333 2.266-1.4-.2.2-.534.267-.8.267-.734 0-1.333-.533-1.333-1.266s.6-1.333 1.332-1.333c.267 0 .534.066.734.2A1.166 1.166 0 0 1 23.396 9c0-.667.6-1.267 1.333-1.267s1.333.6 1.333 1.267c0 .333-.133.666-.4.866.2-.067.4-.133.6-.133.733 0 1.333.6 1.333 1.333s-.6 1.266-1.333 1.266c-.333 0-.6-.133-.866-.266.2.533 1.2 1.466 2.4 1.466.665 0 1.399-.267 2.065-.867h-.2c-.8 0-1.4-.6-1.4-1.266 0-.733.6-1.333 1.4-1.333.333 0 .667.2.933.466h.067s.066 0 .066-.066c-.333-.4-.466-.8-.466-1.133 0-1.133 1.4-1.733 2.733-1.733z" fill="#000"/></g></svg>