<svg width="48" height="48" viewBox="0 0 48 48" xmlns="http://www.w3.org/2000/svg"><g fill="none" fill-rule="evenodd"><path fill-opacity=".01" fill="#FFF" d="M0 0h48v48H0z"/><path d="M23.88 12.8c8.99 0 16.28 5.015 16.28 11.201 0 6.185-7.288 11.199-16.28 11.199S7.6 30.186 7.6 24.001c0-6.186 7.288-11.201 16.28-11.201zm12.756 13.132l-.037.01H27.72c-.341 3.227-2.892 6.427-3.922 7.601l.082.002c6.289 0 11.537-3.267 12.755-7.613zm-14.77.01h-10.74c1.198 4.25 6.253 7.467 12.366 7.598.33-1.454 1.073-5.865-1.625-7.598zm2.435-3.432h-.818l-.002 2.575h.82V22.51zm11.978 0h-5.016v2.573h.816v-2.11h3.851c.13 0 .232.1.232.218v1.892h.3c.275 0 .497-.198.497-.463l.002-1.441a.671.671 0 0 0-.682-.669zm-19.76 0h-4.992c-.387 0-.704.294-.704.669v.854h4.879l.001.385c.002.119-.094.202-.231.202l-4.654-.002c0 .265.223.465.497.465h4.503c.39 0 .702-.288.702-.665v-.848h-4.885l.005-.391c0-.117.05-.205.198-.205h4.68v-.464zm6.327 0H17.86c-.389 0-.703.301-.703.669v1.236c0 .37.314.668.703.668h4.986v-.463H18.21c-.133 0-.236-.1-.236-.216v-1.213c0-.116.103-.217.236-.217h4.637v-.464zm7.078 0h-4.282c-.39 0-.704.301-.704.669v1.236c0 .37.315.668.704.668h4.282c.387 0 .702-.299.702-.668v-1.236c0-.368-.315-.669-.702-.669zm-.35.464c.133 0 .235.099.237.215l-.002 1.215c.002.117-.102.216-.235.216H25.99c-.133 0-.237-.1-.237-.218V23.19c0-.116.104-.215.237-.215zm-5.84-8.516c-6.052.048-11.11 3.12-12.499 7.25H19.9c.73-3.678 2.87-6.245 3.835-7.25zm.398 0c-.232 1.422-.723 5.673 1.344 7.25h11.048c-1.382-4.108-6.39-7.166-12.392-7.25z" fill="#000"/></g></svg>