<svg width="48" height="48" viewBox="0 0 48 48" xmlns="http://www.w3.org/2000/svg"><g fill="none" fill-rule="evenodd"><path fill-opacity=".01" fill="#FFF" d="M0 0h48v48H0z"/><path d="M23.2 11.2c1.766 0 3.539.51 5.07 1.158v6.658c-1.396-1.15-3.024-1.696-5.07-1.696a6.68 6.68 0 1 0 0 13.36c1.922 0 3.637-.513 5.07-1.62v6.623c-1.532.647-3.303 1.117-5.07 1.117-7.07 0-12.8-5.73-12.8-12.8s5.73-12.8 12.8-12.8zm6.082 1.707s5.04 3.611 8.05 10.608c0 0 .058.145.066.486-.008.342-.066.485-.066.485-3.01 6.998-8.05 10.609-8.05 10.609z" fill="#000"/></g></svg>