<?xml version="1.0" encoding="UTF-8"?>
<svg xmlns="http://www.w3.org/2000/svg" xmlns:xlink="http://www.w3.org/1999/xlink" width="48" height="48" viewBox="0 0 719.08 212.76" version="1.1">
<defs>
<clipPath id="clip1">
  <path d="M 0 0 L 719.078125 0 L 719.078125 212.761719 L 0 212.761719 Z M 0 0 "/>
</clipPath>
</defs>
<g id="surface1">
<g clip-path="url(#clip1)" clip-rule="nonzero">
<path style=" stroke:none;fill-rule:evenodd;fill:rgb(6.698608%,8.599854%,8.999634%);fill-opacity:1;" d="M 360.40625 41.894531 C 354.507813 41.882813 353.210938 41.835938 343.578125 41.777344 C 327.6875 41.679688 305.175781 41.621094 297.371094 41.621094 C 284.828125 41.621094 244.5 41.949219 244.5 41.949219 C 239.90625 41.949219 236.417969 42.886719 233.164063 45.679688 C 231.402344 47.175781 229.367188 49.175781 227.847656 50.796875 C 226.40625 52.316406 185.398438 93.183594 185.253906 93.339844 C 184.976563 93.660156 184.328125 94.53125 184.585938 95.324219 C 184.867188 96.222656 185.695313 96.472656 186.257813 96.472656 C 186.660156 96.472656 217.59375 96.46875 217.59375 96.46875 C 224.28125 96.46875 227.402344 93.59375 230.632813 90.449219 C 234.117188 87.054688 260.261719 60.769531 260.261719 60.769531 C 264.425781 56.609375 268.421875 55.769531 274.636719 55.769531 L 319.871094 55.769531 C 323.941406 55.769531 325.945313 55.976563 326.640625 57.523438 C 327.125 58.597656 326.605469 59.753906 324.871094 61.726563 C 323.398438 63.417969 320.867188 65.988281 318.628906 67.964844 C 315.867188 70.394531 312.316406 72.65625 307.75 74.042969 C 302.636719 75.582031 295.601563 75.664063 294.253906 75.664063 L 258.636719 75.640625 C 257.421875 75.640625 256.3125 77.15625 257.523438 78.367188 C 257.523438 78.367188 294.800781 117.46875 295.386719 118.085938 C 295.964844 118.707031 300.28125 122.671875 305.53125 122.671875 C 310.421875 122.671875 330.339844 122.648438 333.269531 122.648438 L 334.925781 122.648438 C 336.472656 122.648438 336.863281 120.777344 335.863281 119.777344 C 335.789063 119.695313 335.140625 119.015625 335.03125 118.90625 C 331.859375 115.59375 305.746094 89.128906 305.605469 88.988281 C 305.25 88.625 304.832031 88.238281 304.929688 87.914063 C 305.035156 87.554688 305.417969 87.476563 305.605469 87.476563 C 305.902344 87.476563 315.792969 87.484375 315.792969 87.484375 C 320.03125 87.484375 327.894531 86.867188 332.621094 85.46875 C 341.980469 82.699219 345.941406 79.738281 349.484375 76.945313 C 351.558594 75.304688 354.015625 73.179688 361.441406 66.277344 C 365.78125 62.25 371.609375 55.546875 372.652344 53.886719 C 373.601563 52.375 375.003906 49.757813 374.152344 47.339844 C 373.164063 44.539063 370.523438 41.914063 360.40625 41.894531 Z M 541.3125 54.464844 C 542.46875 53.527344 550.394531 45.503906 550.953125 44.945313 C 551.265625 44.640625 551.84375 43.867188 551.34375 42.980469 C 550.929688 42.226563 550.171875 42.078125 549.496094 42.078125 C 549.222656 42.078125 398.734375 42.078125 398.734375 42.078125 C 396.953125 42.078125 396.714844 42.039063 395.558594 43.183594 C 395.558594 43.183594 385.597656 53.152344 385.515625 53.230469 C 385.453125 53.296875 384.632813 54.003906 385.140625 55.015625 C 385.449219 55.628906 386.171875 56.019531 386.621094 56.019531 C 387.171875 56.019531 443.585938 55.984375 444.367188 55.984375 C 445.011719 55.984375 445.113281 56.167969 445.265625 56.378906 C 445.265625 56.378906 445.453125 56.820313 445.183594 57.089844 C 444.144531 58.09375 408.410156 93.582031 408.410156 93.582031 C 407.816406 94.304688 407.765625 95.152344 408.128906 95.722656 C 408.277344 95.964844 408.765625 96.476563 409.589844 96.476563 C 409.589844 96.476563 441.472656 96.457031 442.167969 96.457031 C 445.320313 96.5 446.894531 96.144531 448.359375 95.414063 C 449.332031 94.941406 450.539063 93.882813 452.132813 92.304688 C 454.152344 90.304688 456.035156 88.402344 457.140625 87.296875 C 466.347656 78.078125 487.257813 57.191406 487.429688 57.015625 C 487.632813 56.796875 487.917969 56.578125 488.09375 56.402344 C 488.328125 56.179688 488.679688 56.019531 489.074219 56.019531 C 489.285156 56.019531 537.347656 56.019531 537.347656 56.019531 C 538.792969 56.019531 540.226563 55.335938 541.3125 54.464844 Z M 157.828125 67.414063 L 157.761719 67.382813 C 156.484375 67.058594 105.269531 55.421875 105.269531 55.421875 C 104.683594 55.265625 104.28125 54.929688 104.28125 54.542969 C 104.28125 54.007813 105.050781 53.570313 105.996094 53.570313 L 196.382813 53.527344 C 199.316406 53.527344 201.449219 52.996094 203.46875 51.132813 C 205.339844 49.402344 208.105469 46.714844 209.472656 45.414063 C 211.433594 43.566406 212.011719 43.03125 211.742188 42.320313 C 211.472656 41.621094 209.800781 41.769531 208.160156 41.769531 L 74.832031 41.738281 C 60.28125 41.738281 48.488281 48.421875 48.488281 56.65625 C 48.488281 62.464844 54.910156 68.371094 63.398438 71.003906 C 65.507813 71.652344 67.710938 72.308594 67.710938 72.308594 C 67.710938 72.308594 107.835938 81.605469 110.34375 82.210938 C 110.984375 82.363281 111.433594 82.710938 111.433594 83.128906 C 111.433594 83.683594 110.765625 84.121094 109.3125 84.121094 C 106.671875 84.121094 15.019531 84.082031 15.019531 84.082031 C 12.082031 84.082031 10.015625 84.691406 7.929688 86.476563 C 6.808594 87.433594 5.558594 88.652344 4.578125 89.6875 C 4.578125 89.6875 2.054688 92.167969 0.863281 93.28125 C 0.800781 93.347656 -0.417969 94.421875 0.152344 95.53125 C 0.683594 96.558594 1.542969 96.457031 2.179688 96.457031 C 2.179688 96.457031 131.027344 96.457031 147.765625 96.457031 C 162.464844 96.457031 174.382813 89.710938 174.382813 81.378906 C 174.382813 75.0625 167.535156 69.660156 157.828125 67.414063 Z M 706.386719 155.820313 C 705.804688 157.792969 704.234375 159.902344 703.472656 159.230469 C 702.707031 158.558594 702.304688 157.613281 700.734375 155.101563 C 699.164063 152.589844 701.09375 151.960938 701.09375 151.960938 C 704.503906 150.300781 709.304688 144.824219 709.304688 144.824219 C 710.113281 146.84375 706.972656 153.84375 706.386719 155.820313 Z M 659.292969 94.480469 C 658.390625 94.4375 649.65625 93.085938 645.46875 89.84375 C 641.28125 86.601563 638.492188 79.9375 638.492188 79.9375 C 638.492188 79.9375 637.183594 77.550781 639.390625 78.316406 C 641.597656 79.082031 646.554688 81.589844 648.671875 84.335938 C 652.175781 88.445313 656.1875 91.871094 657.941406 92.996094 C 659.699219 94.121094 660.191406 94.527344 659.292969 94.480469 Z M 633.546875 23.527344 L 632.222656 18.816406 C 632.222656 18.816406 644.65625 26.3125 644.882813 27.898438 C 641.300781 25.726563 633.546875 23.527344 633.546875 23.527344 Z M 717.4375 93.035156 C 717.4375 93.035156 707.683594 47.363281 623.691406 9.789063 L 626.53125 22.261719 C 626.53125 22.261719 616.902344 21.3125 608.847656 17.050781 C 608.847656 17.050781 573.007813 0.15625 552.957031 0 C 552.957031 0 554.203125 11.121094 557.519531 18.933594 C 557.519531 18.933594 539.914063 16.460938 506.851563 35.601563 C 505.152344 36.789063 505.261719 37.703125 506.703125 37.246094 C 506.703125 37.246094 555.257813 18.578125 576.976563 41.363281 C 576.976563 41.363281 563.765625 12.960938 566.273438 10.34375 C 566.273438 10.34375 581.113281 13.164063 615.777344 31.796875 C 615.777344 31.796875 677.8125 39.800781 700.964844 89.402344 C 700.964844 89.402344 709.015625 104.070313 697.945313 103.496094 C 693.433594 103.261719 677.824219 101.464844 664.164063 92.910156 C 650.503906 84.351563 643.054688 68.046875 616.558594 66.398438 C 616.558594 66.398438 628.066406 97.597656 650.785156 110.539063 L 650.707031 105.539063 C 650.707031 105.539063 654.015625 100.089844 693.375 109.902344 C 693.375 109.902344 710.089844 111.628906 710.953125 133.519531 C 710.953125 133.519531 695.207031 137.078125 673.210938 127.265625 C 673.210938 127.265625 669.542969 126.511719 687.335938 145.164063 L 692.101563 150.777344 C 692.101563 150.777344 694.558594 153.324219 682.800781 157.097656 C 682.800781 157.097656 675.410156 160.476563 667.710938 153.039063 C 667.710938 153.039063 641.585938 129.019531 634.710938 123.707031 C 624.6875 115.078125 613.734375 115.863281 613.734375 115.863281 C 603.554688 114.605469 601.972656 119.429688 601.972656 119.429688 C 585.910156 149.941406 598.824219 190.289063 598.824219 190.289063 C 599.660156 193.378906 602.085938 192.144531 602.085938 192.144531 C 611.832031 190.113281 628.503906 193.820313 628.503906 193.820313 C 628.503906 193.820313 620.042969 206.925781 583.675781 204.484375 C 583.675781 204.484375 572.367188 202.601563 576.136719 196.835938 C 576.136719 196.835938 597.195313 166.957031 580.894531 127.933594 C 580.894531 127.933594 576.304688 115.078125 560.578125 98.777344 C 560.578125 98.777344 556.332031 97.285156 568.15625 92.351563 C 568.15625 92.351563 596.503906 81.90625 628.414063 105.664063 C 628.414063 105.664063 627.105469 102.261719 621.269531 97.324219 C 605.078125 83.628906 566.734375 61.960938 522.203125 97.777344 C 535.824219 101.433594 562.085938 115.828125 572.273438 138.511719 C 581.078125 158.117188 575.136719 193.3125 553.585938 208.296875 C 559.082031 211.019531 589.304688 215.734375 615.722656 210.160156 C 634.859375 206.125 651.226563 195.699219 648.316406 175.628906 C 648.316406 175.628906 644.925781 181.390625 641.359375 183.265625 C 641.359375 183.265625 636.039063 188.160156 632.292969 176.617188 C 632.292969 176.617188 630.117188 172.566406 633.742188 165.675781 C 633.742188 165.675781 628.605469 166.578125 629.511719 160.113281 C 629.511719 160.113281 629.511719 154.429688 634.164063 149.050781 C 634.164063 149.050781 630.117188 148.382813 631.808594 145.542969 L 633.621094 140.707031 C 633.621094 140.707031 626.382813 145.207031 625.585938 164.972656 C 625.585938 164.972656 624.714844 185.097656 630 186.6875 L 634.488281 189.367188 L 618.707031 186.472656 C 618.707031 186.472656 616.320313 186.183594 618.417969 183.359375 C 618.417969 183.359375 625.800781 174.890625 623.773438 169.386719 C 623.773438 169.386719 616.535156 178.652344 604.808594 179.667969 C 604.808594 179.667969 601.117188 180.753906 600.246094 174.597656 L 599.378906 169.316406 C 599.378906 169.316406 598.292969 168.082031 602.855469 164.683594 L 607.777344 160.339844 L 601.621094 156.9375 C 601.621094 156.9375 598.871094 156.066406 600.101563 151.363281 C 601.335938 146.65625 604.953125 142.890625 606.90625 141.878906 C 606.90625 141.878906 608.933594 140.863281 605.386719 139.417969 C 605.386719 139.417969 601.984375 137.96875 603.289063 135.652344 C 603.289063 135.652344 607.632813 126.316406 610.308594 124.722656 C 610.308594 124.722656 612.121094 122.042969 623.628906 124.796875 C 623.628906 124.796875 635.71875 127.039063 635.429688 133.769531 L 636.226563 143.976563 C 636.226563 143.976563 636.296875 146.078125 638.902344 144.484375 L 642.667969 142.457031 C 642.667969 142.457031 644.621094 141.589844 644.1875 139.851563 C 643.753906 138.113281 643.753906 136.738281 643.753906 136.738281 C 643.753906 136.738281 650.488281 141.371094 650.703125 145.0625 C 650.703125 145.0625 651.355469 146.222656 650.195313 146.582031 L 648.53125 147.308594 L 648.675781 158.601563 C 648.675781 158.601563 648.675781 162.65625 651.863281 159.757813 L 659.753906 153.316406 C 659.753906 153.316406 662.574219 156.355469 663.226563 158.09375 C 663.226563 158.09375 664.820313 160.050781 662.070313 162.003906 L 657.507813 180.535156 C 657.507813 180.535156 673.144531 170.835938 675.027344 165.839844 C 675.027344 165.839844 675.605469 163.8125 679.515625 164.246094 C 683.425781 164.683594 694.355469 164.535156 694.355469 164.535156 L 698.265625 165.769531 L 693.847656 168.011719 C 693.847656 168.011719 691.242188 168.664063 690.953125 173.152344 C 690.664063 177.640625 690.15625 182.636719 690.15625 182.636719 C 690.15625 182.636719 704.824219 171.230469 711.699219 159.136719 C 711.699219 159.136719 718.78125 147.257813 716.203125 134.484375 L 714.636719 113.984375 C 714.636719 113.984375 715.308594 109.949219 717.4375 106.367188 C 719.566406 102.78125 719.679688 98.972656 717.4375 93.035156 "/>
</g>
</g>
</svg>
