<svg width="48" height="48" viewBox="0 0 48 48" xmlns="http://www.w3.org/2000/svg"><g fill="none" fill-rule="evenodd"><path fill-opacity=".01" fill="#FFF" d="M0 0h48v48H0z"/><path d="M24 13.2c6.552 0 12.654 2.031 15.924 5.3 1.62 1.621 2.476 3.481 2.476 5.381 0 1.9-.856 3.76-2.476 5.38-3.27 3.27-9.372 5.302-15.924 5.302S11.346 32.53 8.077 29.262c-1.62-1.62-2.477-3.48-2.477-5.38 0-2.909 1.953-5.62 5.498-7.636C14.553 14.282 19.135 13.2 24 13.2zm0 1.02c-6.292 0-12.117 1.917-15.202 5.002-1.425 1.425-2.178 3.036-2.178 4.66 0 1.623.753 3.234 2.178 4.658 3.085 3.086 8.91 5.003 15.202 5.003 9.583 0 17.38-4.334 17.38-9.662 0-1.623-.753-3.234-2.178-4.659-3.085-3.085-8.91-5.002-15.202-5.002zm-2.982 13.191c.025-.07.066-.07.09 0l.653 1.892c.024.07.105.139.178.152l3.333.588c.074.013.074.034 0 .046l-3.333.56a.258.258 0 0 0-.18.151l-.65 1.832c-.025.07-.067.07-.093 0L20.34 30.8a.26.26 0 0 0-.181-.15l-3.393-.561c-.074-.012-.074-.033 0-.045l3.393-.59a.26.26 0 0 0 .18-.15zm9.465-.835c.025-.07.066-.07.09 0l.652 1.892c.025.07.105.14.179.152l3.333.589c.073.012.073.033 0 .046l-3.333.56a.257.257 0 0 0-.18.15l-.65 1.832c-.025.07-.067.07-.093 0l-.677-1.832a.26.26 0 0 0-.182-.15l-3.392-.56c-.074-.013-.074-.034 0-.046l3.393-.59a.26.26 0 0 0 .18-.15zm-13.234-10.79c.057-.157.148-.157.203.002l1.466 4.25a.576.576 0 0 0 .402.343l7.49 1.322c.166.029.166.076 0 .104l-7.49 1.258a.576.576 0 0 0-.404.34l-1.462 4.116c-.056.158-.15.159-.208 0l-1.522-4.118a.583.583 0 0 0-.408-.337l-7.626-1.26c-.166-.027-.166-.074 0-.102l7.626-1.324a.582.582 0 0 0 .405-.34zm10.045 6.573c.025-.07.066-.07.09.001l.653 1.89c.025.072.105.14.179.153l3.332.588c.074.013.074.034 0 .047l-3.332.56a.256.256 0 0 0-.18.15l-.65 1.832c-.025.07-.067.07-.093 0l-.677-1.832a.26.26 0 0 0-.182-.15l-3.393-.56c-.073-.013-.073-.033 0-.046l3.393-.59a.26.26 0 0 0 .18-.15zm9.182 0c.025-.07.066-.07.09.001l.653 1.89c.024.072.105.14.178.153l3.333.588c.073.014.073.034 0 .047l-3.333.56a.258.258 0 0 0-.18.15l-.65 1.832c-.025.07-.067.07-.093 0l-.677-1.832a.26.26 0 0 0-.181-.15l-3.393-.56c-.074-.013-.074-.033 0-.046l3.393-.59a.259.259 0 0 0 .18-.15zm-2.704-5.407c.025-.07.066-.07.09.001l.653 1.891c.024.07.105.14.179.152l3.333.589c.073.013.073.033 0 .046l-3.333.56a.256.256 0 0 0-.18.15l-.65 1.832c-.025.07-.067.07-.093 0l-.677-1.832a.259.259 0 0 0-.182-.15l-3.392-.56c-.074-.013-.074-.033 0-.046l3.392-.589a.26.26 0 0 0 .18-.151z" fill="#000"/></g></svg>