<svg width="48" height="48" viewBox="0 0 48 48" xmlns="http://www.w3.org/2000/svg"><g fill="none" fill-rule="evenodd"><path fill-opacity=".01" fill="#FFF" d="M0 0h48v48H0z"/><path d="M20.953 13.3L24 17.012l3.046-3.712s5.034.104 10.137 2.39l.289.13c-1.333 2.004-3.976 2.99-3.976 2.99-.18-1.764-1.421-2.197-5.36-2.197l-4.133 23.264-4.166-23.267c-3.912.003-5.153.435-5.333 2.2 0 0-2.644-.987-3.976-2.99 5.008-2.323 10.039-2.51 10.405-2.52h.021zM24 10.338c4.343.02 9.385.748 14.77 2.881 0 0-.169.524-.827 1.71-4.926-2.148-9.74-2.832-13.943-2.8h-.47c-4.09.02-8.73.731-13.472 2.8-.587-1.064-.827-1.71-.827-1.71 5.385-2.133 10.427-2.862 14.769-2.88z" fill="#000"/></g></svg>