<svg width="48" height="48" viewBox="0 0 48 48" xmlns="http://www.w3.org/2000/svg"><g fill="none" fill-rule="evenodd"><path fill-opacity=".01" fill="#FFF" d="M0 0h48v48H0z"/><path d="M38.77 9.23v6.888a16.719 16.719 0 0 0-1.804-2.685l-1.394 1.395c2 2.52 3.197 5.705 3.197 9.172 0 8.157-6.613 14.77-14.769 14.77-8.157 0-14.77-6.613-14.77-14.77S15.844 9.23 24 9.23c3.237 0 6.228 1.045 8.662 2.81l1.407-1.406a16.704 16.704 0 0 0-2.187-1.403h6.887zm-4.98 17.863H14.21c1.313 4.158 5.198 7.173 9.79 7.173 4.592 0 8.477-3.015 9.79-7.173zm.615-4.847c-1.267 0-2.339.78-2.339 1.754 0 .975 1.072 1.754 2.34 1.754 1.316 0 2.388-.779 2.388-1.754 0-.974-1.072-1.754-2.389-1.754zm-14.817.048c-1.267 0-2.339.78-2.339 1.706 0 .975 1.072 1.754 2.34 1.754 1.315 0 2.388-.779 2.388-1.754 0-.926-1.073-1.706-2.389-1.706zm-5.117.098h-3.315v.438h.78l1.51 2.827h1.804l1.511-2.827h.78v-.438H15.25v.438h.634l-1.072 1.999-1.17-1.999h.829v-.438zm14.817 0h-3.315v.438h.78l1.512 2.827h1.802l1.511-2.827h.78v-.438h-2.29v.438h.584L29.63 24.83l-1.17-1.999h.83v-.438zm-4.046 0h-3.07v.438h.779v2.291h-.78v.536h4.63v-1.51h-.486c-.05.78-.731.974-1.024.974h-.83v-2.29h.78v-.44zm-5.654.39c.439 0 .829.536.829 1.218 0 .682-.39 1.218-.829 1.218-.487 0-.828-.536-.828-1.218 0-.682.34-1.218.828-1.218zm14.817-.05c.44 0 .83.537.83 1.268 0 .682-.39 1.218-.83 1.218-.487 0-.828-.536-.828-1.218 0-.731.341-1.267.828-1.267zM24 13.735c-4.592 0-8.477 3.015-9.79 7.173h19.58c-1.313-4.158-5.198-7.173-9.79-7.173z" fill="#000"/></g></svg>